<?xml version="1.0" encoding="UTF-8"?>
<!-- Generator: visioncortex VTracer 0.6.4 -->
<svg version="1.1" xmlns="http://www.w3.org/2000/svg" width="588" height="665">
<path d="M0 0 C9.32700152 6.15323017 15.22996125 16.65846033 17.8046875 27.3125 C23.77968553 60.70700956 9.37572479 92.43335227 -8.09814453 120.06982422 C-9.71957852 122.65053319 -11.31342983 125.24680833 -12.90234375 127.84765625 C-26.94818988 150.80977517 -26.94818988 150.80977517 -33.24291992 158.46850586 C-37.86929725 164.14607477 -41.07550106 169.95311356 -44.1875 176.5625 C-50.36584911 189.27468098 -57.38678713 201.36912172 -64.625 213.5 C-86.00990616 249.31124415 -86.00990616 249.31124415 -102.625 287.5 C-102.89892578 288.25297363 -103.17285156 289.00594727 -103.45507812 289.78173828 C-120.95078118 338.42190069 -122.31980851 390.47015737 -100.4375 437.9375 C-94.44413075 450.56327913 -86.69594642 461.87861676 -77.625 472.5 C-76.91730469 473.33015625 -76.20960938 474.1603125 -75.48046875 475.015625 C-48.87054896 505.40033201 -11.62230618 520.75125172 28.109375 523.78515625 C56.39380263 524.54870301 81.81382642 514.2592189 102.3125 495 C122.56493522 474.21295081 130.79603513 446.2343168 130.67749023 417.71704102 C130.17376549 394.56678889 123.05415835 370.89699442 107.375 353.5 C106.81039063 352.85417969 106.24578125 352.20835937 105.6640625 351.54296875 C99.12470405 344.49704028 90.51334979 339.08074596 80.82421875 338.1640625 C73.10198596 338.08387317 66.96020191 338.25321673 60.375 342.5 C59.76398438 342.86609375 59.15296875 343.2321875 58.5234375 343.609375 C51.93470332 348.31146724 48.31437921 356.95090919 45.69921875 364.43359375 C43.41219463 379.00992818 46.09616486 392.82234079 54.359375 405.109375 C57.47829198 408.80855561 61.13974886 411.22391266 65.375 413.5 C65.705 413.17 66.035 412.84 66.375 412.5 C65.67375 412.066875 64.9725 411.63375 64.25 411.1875 C57.91266199 405.26346664 54.67034723 397.57202061 54.171875 389.01171875 C53.98185489 373.50924463 53.98185489 373.50924463 58.81640625 367.796875 C62.98538966 363.81167508 67.602129 361.13859192 73.375 360.5 C82.31397043 360.97102303 88.95033964 363.45483974 95.25390625 369.8515625 C104.10340213 380.90120929 107.45396481 394.48556761 106.09375 408.37109375 C104.37277561 421.36114085 98.51850509 430.41459739 88.375 438.5 C81.42852167 442.41282855 73.36567923 444.13008942 65.55810547 442.00561523 C60.13915869 440.20477067 56.14366326 437.43031748 51.875 433.6875 C51.22281494 433.11708984 50.57062988 432.54667969 49.89868164 431.95898438 C43.62300933 426.21639587 40.00019474 420.16469744 36.375 412.5 C35.81296875 411.4171875 35.2509375 410.334375 34.671875 409.21875 C25.87362696 391.62225393 24.09104457 369.71642052 30.046875 350.86328125 C35.78368612 336.33565073 43.85066276 325.12932324 58.0859375 318.17578125 C69.3039512 313.79614576 82.33620988 313.78815537 93.546875 318.18359375 C117.20885023 329.19752421 131.90975534 349.62575473 141.0012207 373.55639648 C153.15506275 407.21563939 151.94013486 445.45866593 138.375 478.5 C139.344375 477.79875 140.31375 477.0975 141.3125 476.375 C161.58288063 461.93337549 181.57942726 454.05871925 206.375 451.5 C207.07093262 451.42313965 207.76686523 451.3462793 208.48388672 451.26708984 C223.54797684 449.80041112 241.4549083 455.05741756 253.375 464.5 C263.7530128 473.15472654 271.68237321 486.18974147 274.375 499.5 C274.61981995 503.756828 274.64576399 508.01445909 274.67016602 512.27734375 C274.68157493 513.65798278 274.70184643 515.03858171 274.73168945 516.41894531 C275.00712358 529.19047189 273.64708801 542.16574841 265.375 552.5 C264.93027344 553.07878906 264.48554687 553.65757812 264.02734375 554.25390625 C256.32749111 563.05655108 243.64500691 568.321132 232.375 570.5 C231.22 570.726875 230.065 570.95375 228.875 571.1875 C214.53057695 572.46825206 203.93218653 569.34710496 192.375 560.5 C184.60089696 553.58683068 181.47973414 546.56071714 180.875 536.25 C181.22156603 525.14413397 186.04589077 514.61404242 193.984375 506.9453125 C199.04778681 502.50856057 203.10149831 502.20816423 209.5859375 502.28515625 C214.82628329 502.68882434 218.09658244 504.44885667 222.1875 507.8125 C226.30835635 512.87526637 226.74356538 517.76604569 226.6484375 524.1015625 C226.28259185 527.31055148 224.91256118 529.69227959 223.375 532.5 C223.45794637 535.40312306 224.10839111 536.22386937 226.125 538.3125 C228.30211597 539.66272816 228.30211597 539.66272816 230.75 539.625 C235.37272913 537.64383037 238.22867829 533.88116248 240.38671875 529.3984375 C245.12523104 517.05519086 244.5305228 504.66256463 239.375 492.5 C234.33931918 482.83497571 226.65194112 476.16837337 216.375 472.5 C194.76503871 467.38822665 173.04646803 475.4494235 154.3515625 486.24609375 C152.75741278 487.25438088 151.16602898 488.26706135 149.578125 489.28515625 C147.25184505 490.56790991 145.204397 491.14675393 142.625 491.75 C129.79316362 495.2055024 120.13969545 506.29668144 112.16796875 516.2578125 C105.80396956 523.83550972 99.00200543 528.13542899 90.29541016 532.52734375 C88.56084011 533.40587503 86.84728152 534.32559454 85.13671875 535.25 C55.53524035 550.93290247 18.99827978 549.47314508 -12.32421875 539.9375 C-19.34187836 537.66712709 -25.99909912 534.72223966 -32.625 531.5 C-33.65923096 531.0052417 -33.65923096 531.0052417 -34.71435547 530.50048828 C-50.9905394 522.62974002 -64.64825507 511.99198147 -77.625 499.5 C-78.4396875 498.76007813 -79.254375 498.02015625 -80.09375 497.2578125 C-112.495863 466.85453115 -126.67866541 423.22353623 -132.625 380.5 C-133.67598683 391.77947389 -134.6346476 403.0634489 -135.46636963 414.36132812 C-135.60445745 416.22304317 -135.74961005 418.08423156 -135.89599609 419.9453125 C-137.8594436 447.40611678 -125.46950766 479.03730468 -107.83984375 500.05078125 C-100.70687854 507.9385576 -94.63504723 512.90829436 -84.5234375 516.37890625 C-80.48538788 517.94079337 -77.77227865 519.69459112 -75.625 523.5 C-74.4945209 526.81347322 -73.96895622 530.02281761 -73.625 533.5 C-73.5425 534.24121094 -73.46 534.98242188 -73.375 535.74609375 C-73.16879695 539.15488794 -73.42479068 541.18292209 -75.2578125 544.0859375 C-80.02765253 548.95022981 -88.09450955 550.63525912 -94.8125 550.9375 C-107.69202342 549.4595219 -117.2916592 543.30493692 -125.625 533.5 C-139.55627482 515.05535321 -144.86086296 491.82443895 -148.625 469.5 C-148.94984375 467.69208984 -148.94984375 467.69208984 -149.28125 465.84765625 C-156.04795052 423.20749196 -150.75300016 377.20353006 -140.625 335.5 C-140.41230469 334.60796875 -140.19960937 333.7159375 -139.98046875 332.796875 C-132.494762 301.69497081 -121.1541154 270.09592093 -101.21435547 244.70361328 C-97.17203792 239.50933319 -94.05836061 234.06782656 -91 228.25 C-87.0477225 220.86610061 -82.97335442 213.59550543 -78.625 206.4375 C-54.03510951 165.79487389 -29.06114411 121.7636311 -40.0859375 72.68798828 C-44.46131167 54.92888354 -52.79669969 38.09283188 -68.75 28.125 C-77.98935439 22.95936095 -87.45241279 21.2599607 -97.875 23.6875 C-102.79169591 25.10602454 -107.26040921 26.82461325 -111.625 29.5 C-113.2646875 30.49 -113.2646875 30.49 -114.9375 31.5 C-120.78795423 36.74633124 -120.78896764 46.71004717 -121.5 54 C-122.19171964 69.17171734 -115.26706283 82.55343792 -108.43359375 95.7421875 C-105.703258 101.18006709 -104.82755837 106.23518016 -106.2890625 112.21875 C-108.04840085 117.08196169 -109.76388378 121.1799218 -114.625 123.5 C-118.94481784 123.90388541 -121.76956826 123.20573119 -125.125 120.4375 C-125.95 119.468125 -126.775 118.49875 -127.625 117.5 C-128.9733338 116.1815086 -130.3279739 114.86944774 -131.6875 113.5625 C-143.30897081 102.35525983 -146.54544288 85.90960207 -146.90112305 70.33081055 C-146.91312744 69.49976807 -146.92513184 68.66872559 -146.9375 67.8125 C-146.95530518 67.0285083 -146.97311035 66.2445166 -146.99145508 65.43676758 C-146.97019762 49.8746753 -137.25286397 30.59926117 -126.625 19.5 C-116.64062056 10.2239718 -104.60845744 3.52638237 -90.62890625 3.49560547 C-76.99350694 4.12699512 -65.95475332 8.64296251 -55.625 17.5 C-54.635 18.221875 -53.645 18.94375 -52.625 19.6875 C-47.76219378 23.7938697 -44.25109872 29.32920941 -40.625 34.5 C-40.07585937 35.27085938 -39.52671875 36.04171875 -38.9609375 36.8359375 C-27.87833234 53.72653894 -23.84869819 75.12788336 -23.0625 94.9375 C-23.01931641 95.95521484 -22.97613281 96.97292969 -22.93164062 98.02148438 C-22.82631418 100.51421028 -22.72418328 103.00702338 -22.625 105.5 C-9.44622757 83.92246072 6.0905007 57.92440281 0.7734375 31.51171875 C-0.59030893 26.53789185 -0.59030893 26.53789185 -3.625 22.5 C-5.73320797 22.8185177 -5.73320797 22.8185177 -7.625 23.5 C-6.449375 24.61375 -6.449375 24.61375 -5.25 25.75 C-2.4650073 28.6676114 -0.72357488 30.6336489 -0.5078125 34.71875 C-0.89010482 38.31969703 -1.24661876 40.89459001 -3.1875 44 C-6.56931639 46.08111778 -9.71646536 46.68298383 -13.625 46.5 C-18.83437444 44.91069932 -22.30645333 42.83254704 -25.625 38.5 C-29.02236596 31.33656169 -29.36726996 24.1756671 -27.625 16.5 C-25.01315201 9.4361384 -22.03497977 3.63087585 -15.625 -0.5 C-10.13994178 -2.32835274 -5.34651193 -2.21234976 0 0 Z " fill="#F4AD25" transform="translate(250.625,57.5)"/>
<path d="M0 0 C0.33 0 0.66 0 1 0 C4.99032859 43.27971781 -13.82178925 83.34258567 -35.21972656 119.91552734 C-38.99432148 126.45532879 -42.59865692 133.09136956 -46.22906494 139.71194458 C-47.24584668 141.56611309 -48.26326198 143.41993101 -49.28125 145.2734375 C-49.60656708 145.86585739 -49.93188416 146.45827728 -50.26705933 147.06864929 C-52.06505812 150.33324619 -53.89715761 153.57345108 -55.78125 156.7890625 C-69.64176872 180.55622772 -87.29026576 213.85615732 -85 242 C-84.14284151 245.50829714 -84.14284151 245.50829714 -83 248 C-76.82203382 248.51399359 -76.82203382 248.51399359 -71.1875 246.3125 C-68.92259011 244.01735257 -68.92259011 244.01735257 -67 241.25 C-65 239 -65 239 -62.5 238.375 C-60 239 -60 239 -57.6875 240.9375 C-55.38097046 245.12342397 -55.24773895 248.32187659 -56 253 C-57.99254823 259.7373037 -62.48828724 263.8841106 -68 268 C-72.36503312 270.18251656 -78.451134 269.71175881 -83.0703125 268.421875 C-89.50397964 265.24831722 -92.89667951 259.04010908 -95.26171875 252.5234375 C-96.24289427 249.3630195 -97.15911259 246.20031856 -98 243 C-105.49940654 256.97097563 -110.92238307 271.05373449 -114.21875 286.59375 C-114.99703621 289.98707788 -115.9191368 293.30749631 -116.88574219 296.65063477 C-124.88980801 324.43675506 -124.9634374 353.10593994 -111.37109375 379.1171875 C-104.36480204 391.6877601 -95.39682358 401.32725079 -81.57421875 406.33984375 C-74.54585971 408.14226056 -67.96835697 407.90206491 -61.6484375 404.1875 C-56.45160672 400.44381148 -54.11798208 395.16276071 -53 389 C-52.85931774 382.48723888 -53.30144096 377.47786582 -57 372 C-56.649375 372.845625 -56.29875 373.69125 -55.9375 374.5625 C-54.84631946 378.56349532 -54.96214406 380.99684136 -56 385 C-57.5 387.4375 -57.5 387.4375 -60 389 C-66.11364992 390.32254468 -71.33103115 388.6306703 -76.69921875 385.68359375 C-82.50553944 381.43482598 -85.751255 374.992972 -87 368 C-87.98864841 359.90544116 -85.94868799 352.46408967 -81.45703125 345.6640625 C-77.13081877 340.33797025 -72.46823933 336.69409543 -65.5859375 335.625 C-57.32696432 335.21588678 -51.09434541 338.04095551 -44.8125 343.25 C-34.12912847 353.27625939 -28.22512057 366.60968442 -27.69921875 381.26953125 C-27.67975688 383.11708913 -27.67625554 384.96487384 -27.6875 386.8125 C-27.69313965 387.78300293 -27.6987793 388.75350586 -27.70458984 389.75341797 C-27.96608786 405.20769205 -32.76951275 418.49475914 -43.5703125 429.8046875 C-52.04423256 437.46118762 -60.76683218 440.44189455 -72.09765625 440.17578125 C-86.89269433 439.27971569 -99.23931357 430.54502731 -109 420 C-111.5723502 416.79401942 -113.83084603 413.48823409 -116 410 C-116.43570313 409.34644531 -116.87140625 408.69289063 -117.3203125 408.01953125 C-121.0769628 402.29004887 -124.03368576 396.16542782 -127 390 C-127.51949219 388.93136719 -128.03898438 387.86273438 -128.57421875 386.76171875 C-137.14879684 368.72702681 -140.60145375 351.12981629 -140.4375 331.3125 C-140.43445862 330.52796448 -140.43141724 329.74342896 -140.42828369 328.93511963 C-140.35597817 316.28100999 -139.48388158 304.22913536 -136 292 C-135.67056396 290.83114258 -135.67056396 290.83114258 -135.33447266 289.63867188 C-132.2303911 278.962213 -128.02708707 268.90247225 -123 259 C-122.67741211 258.35901367 -122.35482422 257.71802734 -122.02246094 257.05761719 C-118.8873774 250.87019426 -115.73837114 244.81461351 -111.5625 239.25 C-108.31885414 234.81555622 -106.08750216 230.1604795 -103.8125 225.1875 C-96.96815292 210.27224168 -88.98360999 196.04400632 -79 183 C-63.26878969 161.94803099 -50.35902537 138.97657523 -37.67626953 116.00830078 C-35.99436484 112.98988691 -34.28244879 109.99072371 -32.55859375 106.99609375 C-15.57199145 77.46595189 -1.58639538 47.0858645 -0.4375 12.5625 C-0.37272461 10.74975586 -0.37272461 10.74975586 -0.30664062 8.90039062 C-0.20110596 5.93369394 -0.09899286 2.96692098 0 0 Z " fill="#726456" transform="translate(279,81)"/>
<path d="M0 0 C9.89386696 3.49697022 16.16114403 9.48452267 21.625 18.1875 C22.10646484 18.94708008 22.58792969 19.70666016 23.08398438 20.48925781 C38.54527672 45.33549099 37.37470214 76.39084485 31 104 C26.82772101 120.27188807 19.73278864 136.29640624 10 150 C9.40832031 150.84949219 8.81664062 151.69898438 8.20703125 152.57421875 C3.11761097 159.42657224 -2.88537431 164.32983795 -10 169 C-10.71671875 169.47824219 -11.4334375 169.95648438 -12.171875 170.44921875 C-19.18882832 174.32486157 -28.2236476 174.23910975 -36 173 C-43.62319922 170.41766337 -49.14329858 166.14206255 -53.0546875 159.1015625 C-54.04598802 156.89776217 -54.58061795 154.86486653 -55.0625 152.5 C-55.71712841 149.29514426 -55.71712841 149.29514426 -56.5703125 146.140625 C-58.23251054 137.85985657 -56.60331106 128.97072818 -52 122 C-49.64411533 119.48705635 -48.46276207 119.07876801 -45.0625 118.5 C-39.34199498 119.43396 -36.34215346 124.58358292 -33 129 C-31.73695413 131.52609174 -31.86714013 133.30330556 -31.875 136.125 C-31.87113281 137.60613281 -31.87113281 137.60613281 -31.8671875 139.1171875 C-31.98469746 141.66784496 -32.39173187 143.78796233 -33 146.25 C-33.40472562 149.95605276 -33.40472562 149.95605276 -31.3203125 151.9765625 C-29.88305711 153.21945595 -28.40355068 154.41545855 -26.8828125 155.5546875 C-25 157 -25 157 -24 159 C-15.92827505 158.64125667 -8.64522316 154.67923053 -3 149 C-2.34 149 -1.68 149 -1 149 C-1 148.34 -1 147.68 -1 147 C0.13438145 145.83124335 1.27558486 144.66853642 2.4453125 143.53515625 C8.41888639 137.63662726 12.93711099 131.33542878 17 124 C17.598125 122.9275 18.19625 121.855 18.8125 120.75 C20.0783109 117.81864844 20.62358913 115.16185128 21 112 C17.45224921 113.97097266 14.81311434 116.08988172 12 119 C8.52712734 120.73643633 4.79720284 120.45487326 1 120 C-6.75718059 115.86283702 -8.95469029 105.95627709 -11.40600586 98.07958984 C-13.50308652 90.83912512 -14.58156224 84.39743 -11.3125 77.375 C-9 75 -9 75 -6.75 73.75 C-2.1644272 74.16687025 0.8137858 76.80687427 4 80 C6.80270909 84.88213842 7.81762821 89.43766042 8 95 C6.5625 97.5 6.5625 97.5 5 99 C3.68 98.67 2.36 98.34 1 98 C-0.04005702 94.61981469 -0.08004482 91.5219721 0 88 C-0.99 87.505 -0.99 87.505 -2 87 C-4.36095786 94.08287359 -3.16610197 101.39418231 0 108 C1.61877592 110.11103527 2.41140993 110.89573547 5.05078125 111.36328125 C9.68188794 111.25930131 13.75725503 111.06963169 18 109 C22.86905607 100.95537782 22.3233758 90.68007067 22.25 81.625 C22.24178223 80.3963623 22.23356445 79.16772461 22.22509766 77.90185547 C22.02613147 61.49035417 21.32210958 47.82136698 14 33 C13.41443915 31.4041067 12.84750273 29.80104548 12.3125 28.1875 C11.879375 27.135625 11.44625 26.08375 11 25 C9.515 24.505 9.515 24.505 8 24 C7.55269531 24.96421875 7.10539062 25.9284375 6.64453125 26.921875 C6.03450877 28.19822973 5.42379487 29.47425417 4.8125 30.75 C4.52052734 31.38421875 4.22855469 32.0184375 3.92773438 32.671875 C1.92113407 36.8145337 -0.02382024 39.44971725 -4 42 C-7.45555791 42.63991813 -9.70025657 42.67303276 -12.86328125 41.03515625 C-18.3949501 36.94859147 -20.49015067 31.55757045 -22 25 C-23.0229787 17.93406462 -21.85989034 12.03107865 -18 6 C-13.17100441 -0.36430126 -7.69601682 -1.41657452 0 0 Z " fill="#572A21" transform="translate(162,98)"/>
<path d="M0 0 C5.95248483 1.05273203 9.31941166 5.6276346 12.6796875 10.37109375 C18.59414308 19.80185501 20.48704186 27.84361963 20.3125 38.9375 C20.31572266 39.95779297 20.31894531 40.97808594 20.32226562 42.02929688 C20.2034855 58.95006557 20.2034855 58.95006557 15.375 65.4375 C14.84261719 66.16710937 14.31023437 66.89671875 13.76171875 67.6484375 C13.18035156 68.42445313 12.59898437 69.20046875 12 70 C11.38769531 70.89976562 10.77539062 71.79953125 10.14453125 72.7265625 C-0.2427714 87.77882143 -0.2427714 87.77882143 -7.76953125 89.7109375 C-8.50558594 89.80632812 -9.24164063 89.90171875 -10 90 C-10 90.66 -10 91.32 -10 92 C-8.68 92.33 -7.36 92.66 -6 93 C-9.67410785 94.17571451 -13.16929183 94.07366746 -17 94 C-17 93.67 -17 93.34 -17 93 C-15.35 93 -13.7 93 -12 93 C-12 92.34 -12 91.68 -12 91 C-13.59328125 91.10441406 -13.59328125 91.10441406 -15.21875 91.2109375 C-28.07133516 91.80364274 -28.07133516 91.80364274 -32.5625 88.375 C-33.72695127 87.26928202 -34.87386949 86.14472228 -36 85 C-36.5878125 84.57847656 -37.175625 84.15695312 -37.78125 83.72265625 C-45.71397342 77.99926589 -49.46374212 67.8406447 -53 59 C-53.33 58.34 -53.66 57.68 -54 57 C-54.58741809 49.95098298 -53.21185621 46.85422745 -48.6328125 41.359375 C-45.99884576 39.16650317 -43.59736019 39.53429879 -40.29296875 39.63671875 C-36.82658913 40.18590666 -34.63611574 41.75930162 -32 44 C-30.71928754 46.56142493 -31.04499615 48.65562916 -31.16748047 51.4597168 C-31.53836382 60.53504489 -31.53836382 60.53504489 -27.4765625 68.44921875 C-26.98929687 68.96097656 -26.50203125 69.47273437 -26 70 C-25.55398438 70.52207031 -25.10796875 71.04414062 -24.6484375 71.58203125 C-22.01031533 74.2569987 -19.40071918 75.45079672 -15.75 75.875 C-9.18952942 75.48844029 -5.2030672 70.59082958 -1 66 C6.71195186 57.05637525 7.3702313 50.43616311 7.5 38.9375 C7.51317261 37.85378113 7.51317261 37.85378113 7.52661133 36.74816895 C7.59741239 25.97140694 6.38666216 16.9522685 1.53125 7.203125 C0 4 0 4 0 0 Z " fill="#C6881B" transform="translate(493,534)"/>
<path d="M0 0 C10.95036998 1.75525056 19.39912565 8.3084849 27 16 C27.99580078 16.96292969 27.99580078 16.96292969 29.01171875 17.9453125 C34.31375201 23.43017449 38.05444201 29.74995737 41.92236328 36.27416992 C44.51276727 40.63256297 47.19864425 44.73711515 50.3125 48.75 C62.5521523 65.31248637 62.56292999 84.24497377 62 104 C61.98195313 105.14082031 61.96390625 106.28164063 61.9453125 107.45703125 C61.68109141 113.75948126 60.50494826 119.48922902 58.6875 125.5 C58.48680908 126.17111816 58.28611816 126.84223633 58.0793457 127.53369141 C56.71657467 131.71862873 55.05933112 134.82823699 52 138 C51.01 138.33 50.02 138.66 49 139 C47 137.625 47 137.625 45 135 C44.28511149 130.29503606 44.70497278 126.06091789 45.9765625 121.48828125 C47.48122755 115.72288151 47.55378458 109.86674338 47.75 103.9375 C47.79165283 102.73754395 47.83330566 101.53758789 47.8762207 100.30126953 C48.10800353 91.62496335 47.71720056 83.52951592 46 75 C45.8659375 74.16082031 45.731875 73.32164062 45.59375 72.45703125 C43.99843576 63.54474691 39.58063445 56.49803999 33.9296875 49.5859375 C31.63846776 46.51551752 29.77210701 43.25701037 27.875 39.9375 C23.22868394 31.90502359 17.48911213 24.98120713 11.55273438 17.87939453 C9.21780544 15.05324941 6.96679164 12.1693539 4.75 9.25 C4.04359375 8.32703125 3.3371875 7.4040625 2.609375 6.453125 C1.1332314 4.20308087 0.41781255 2.62976135 0 0 Z " fill="#736557" transform="translate(357,370)"/>
<path d="M0 0 C2.6875 2.25 2.6875 2.25 5 5 C5.50015625 5.54398437 6.0003125 6.08796875 6.515625 6.6484375 C8.6448721 10.02161317 9.2538171 13.50130909 10.0625 17.375 C11.34510939 23.33988111 11.34510939 23.33988111 13.08203125 29.18359375 C15.07634316 35.30231241 15.37875147 41.24598757 12.45703125 47.08203125 C8.65762371 52.57169746 5.15104745 56.38010942 -1 59 C-1.9075 59.4125 -2.815 59.825 -3.75 60.25 C-8.53462597 61.35414445 -13.12717431 61.74795653 -18 61 C-21.1875 58.625 -21.1875 58.625 -23 56 C-23 55.34 -23 54.68 -23 54 C-23.99 53.67 -24.98 53.34 -26 53 C-27.46397212 50.85126673 -28.74912022 48.76762202 -30 46.5 C-30.35594238 45.86288086 -30.71188477 45.22576172 -31.07861328 44.56933594 C-33.6578701 39.85045478 -35.7251922 35.2430065 -37 30 C-37.30357422 28.80310547 -37.30357422 28.80310547 -37.61328125 27.58203125 C-40.79992013 13.59984026 -40.79992013 13.59984026 -38 8 C-37.34 8 -36.68 8 -36 8 C-35.67 8.66 -35.34 9.32 -35 10 C-34.34 9.34 -33.68 8.68 -33 8 C-32.76925781 8.83402344 -32.53851563 9.66804688 -32.30078125 10.52734375 C-30.25892632 17.57295383 -27.91710331 23.78721729 -24 30 C-24.66 30 -25.32 30 -26 30 C-25.52158646 35.10307778 -23.07092618 39.0172582 -20 43 C-16.88813615 45.532065 -16.88813615 45.532065 -13.0625 45.875 C-7.60976425 43.59306392 -7.60976425 43.59306392 -3 40 C-2.68110168 37.9280863 -2.68110168 37.9280863 -2.75 35.625 C-2.74484375 34.85414063 -2.7396875 34.08328125 -2.734375 33.2890625 C-3.33579202 28.10626288 -6.37918867 25.52797001 -10 22 C-12.82536994 16.34926012 -10.86732773 8.70026361 -9 3 C-6.71201368 -0.66077811 -4.10567563 -0.6569081 0 0 Z " fill="#C6881B" transform="translate(329,433)"/>
<path d="M0 0 C1.2065625 0.0309375 1.2065625 0.0309375 2.4375 0.0625 C4.88014216 4.16173976 4.37638153 6.55193016 3.34179688 11.06542969 C1.71064446 16.4714845 -0.60689742 21.58515524 -2.92672729 26.72296143 C-4.42905399 30.05494347 -5.89400535 33.4033459 -7.36328125 36.75 C-7.64877335 37.39828766 -7.93426544 38.04657532 -8.22840881 38.71450806 C-13.04989692 49.6871112 -16.91039237 60.82874274 -20.25048828 72.33544922 C-21.4549181 76.4674744 -22.7050257 80.55334782 -24.1796875 84.59765625 C-28.54428899 96.64888351 -31.525375 108.88248035 -34.3125 121.375 C-34.5030899 122.22799683 -34.69367981 123.08099365 -34.89004517 123.95983887 C-37.33366923 134.9554203 -39.56166674 145.97792228 -41.5625 157.0625 C-41.8925 157.0625 -42.2225 157.0625 -42.5625 157.0625 C-45.56717628 131.14716709 -43.49666578 104.7922428 -35.48095703 79.96386719 C-34.4576859 76.73139666 -33.50604406 73.48204322 -32.55859375 70.2265625 C-11.96164304 0.29174739 -11.96164304 0.29174739 0 0 Z " fill="#726456" transform="translate(133.5625,286.9375)"/>
<path d="M0 0 C-0.54488575 4.23043244 -1.94751135 6.67836034 -4.5 10.0625 C-8.52334814 15.41322324 -9.12626186 18.81271467 -9.1328125 25.48828125 C-9.13410156 26.75220703 -9.13539062 28.01613281 -9.13671875 29.31835938 C-9.13285156 30.63642578 -9.12898438 31.95449219 -9.125 33.3125 C-9.12886719 34.61896484 -9.13273437 35.92542969 -9.13671875 37.27148438 C-9.13542969 38.53927734 -9.13414063 39.80707031 -9.1328125 41.11328125 C-9.13168457 42.26610596 -9.13055664 43.41893066 -9.12939453 44.60668945 C-8.87495078 51.27935689 -8.10230874 55.51058606 -4.125 60.9375 C0.84154625 68.08469828 4.03711871 74.11041106 3 83 C1.5 85.5 1.5 85.5 -1 87 C-5.58003271 87.58159146 -7.78261 87.71936682 -11.75 85.375 C-17.19680934 79.62559014 -19.53134657 73.3852153 -22 66 C-22.36480469 65.08605469 -22.72960937 64.17210937 -23.10546875 63.23046875 C-24.27067567 59.02249442 -24.25812389 55.15543867 -24.1875 50.8125 C-24.1781543 49.96969482 -24.16880859 49.12688965 -24.15917969 48.25854492 C-24.12288645 45.83829748 -24.06657003 43.41958469 -24 41 C-23.97035156 39.8759375 -23.94070312 38.751875 -23.91015625 37.59375 C-23.60624371 32.31604937 -22.60422386 28.57722145 -19.98828125 23.9921875 C-18.26925302 20.52695272 -17.66620274 16.78683665 -17 13 C-17.45375 13.825 -17.9075 14.65 -18.375 15.5 C-19.179375 16.7375 -19.179375 16.7375 -20 18 C-20.66 18 -21.32 18 -22 18 C-20.55049545 14.2089881 -18.84827434 10.6125362 -17 7 C-16.01 8.485 -16.01 8.485 -15 10 C-14.52949219 9.44570312 -14.05898437 8.89140625 -13.57421875 8.3203125 C-12.95160156 7.59585938 -12.32898438 6.87140625 -11.6875 6.125 C-11.07261719 5.40570313 -10.45773438 4.68640625 -9.82421875 3.9453125 C-6.61439053 0.52241217 -4.5746709 -0.24727951 0 0 Z " fill="#C6881B" transform="translate(134,79)"/>
<path d="M0 0 C2.625 0.5625 2.625 0.5625 4.625 2.5625 C4.48721213 6.14006366 3.99070388 8.0866161 1.796875 10.94140625 C-3.90692139 16.08402268 -9.12657564 19.02910812 -16.38671875 21.51171875 C-20.89598506 23.09733004 -24.67314556 25.38819063 -28.60546875 28.1015625 C-39.17106615 33.67495239 -57.03258318 32.59039342 -68.3125 29.4375 C-72.50979218 27.82376835 -75.63960521 25.1044486 -79.0625 22.24609375 C-81.4539311 20.50503496 -83.52302618 19.63330597 -86.3125 18.6875 C-92.53815973 16.4787102 -96.76227285 12.15559852 -101.375 7.5625 C-101.045 6.2425 -100.715 4.9225 -100.375 3.5625 C-98.11537492 2.7893391 -96.84210796 2.39946232 -94.55078125 3.19921875 C-93.62845703 3.71935547 -93.62845703 3.71935547 -92.6875 4.25 C-89.74855229 5.83714122 -86.81361748 7.29209391 -83.75 8.625 C-77.99834011 11.16162949 -72.68274347 13.91342636 -67.5 17.4765625 C-58.94457969 21.84863391 -42.92341956 21.47074236 -33.88671875 18.83740234 C-29.09809574 16.89073198 -24.78152108 14.24270165 -20.375 11.5625 C-18.72249501 10.84162464 -17.05765156 10.14739306 -15.375 9.5 C-12.04575295 8.09854553 -9.81684834 6.28398877 -7.1875 3.8125 C-4.50614869 1.31311664 -3.7325156 0.62208593 0 0 Z " fill="#572A21" transform="translate(324.375,535.4375)"/>
<path d="M0 0 C2.25121549 2.82377897 3.85667956 5.6039875 5.375 8.875 C8.98832712 16.17648646 13.60877278 20.70578661 20.109375 25.484375 C22 27 22 27 23 29 C23.845625 29.2475 24.69125 29.495 25.5625 29.75 C29.24189986 31.08796358 31.5385903 32.74616654 34.56640625 35.16015625 C36.4818309 36.60825418 38.37766374 37.90346989 40.40234375 39.18359375 C40.99523193 39.56636475 41.58812012 39.94913574 42.19897461 40.34350586 C43.38348465 41.10411641 44.5782592 41.84901367 45.78344727 42.57641602 C47.4375 43.65625 47.4375 43.65625 50 46 C50.66935291 50.17017485 50.16894808 51.69026185 48.125 55.4375 C46.32181701 57.37349534 45.3557875 57.94324488 42.72265625 58.36328125 C33.500072 57.9511781 28.47058735 52.73089396 22.5 46.25 C20.99721358 44.50239222 19.49721045 42.75238719 18 41 C17.24847656 40.20464844 16.49695313 39.40929687 15.72265625 38.58984375 C10.6321577 32.92862023 9.02877863 28.58898575 8.546875 20.98046875 C7.87747992 17.33226557 6.41364846 15.76488834 4 13 C2.734375 10.68359375 2.734375 10.68359375 1.75 8.4375 C1.24726562 7.32181641 1.24726562 7.32181641 0.734375 6.18359375 C0 4 0 4 0 0 Z " fill="#C7881B" transform="translate(112,539)"/>
<path d="M0 0 C2.85546875 1.37890625 2.85546875 1.37890625 5 3 C5.6875 5.4375 5.6875 5.4375 5 8 C1.56740559 10.79397219 -1.90981192 12.4093713 -6 14 C-8.29926298 15.87046826 -8.29926298 15.87046826 -8.25 18.875 C-8.21503241 21.91482378 -8.21503241 21.91482378 -6.9375 24 C-5.53752116 26.98662153 -6.07524634 28.89546986 -7 32 C-9.04149177 34.18731261 -10.40182522 34.87066491 -13.3125 35.5 C-17.27584602 34.7626333 -19.9078663 32.49509347 -23 30 C-23.33 31.32 -23.66 32.64 -24 34 C-27.42662906 25.24951223 -28.16637184 16.58153856 -24.4375 7.75 C-23.963125 6.8425 -23.48875 5.935 -23 5 C-22.01 5 -21.02 5 -20 5 C-18.576875 3.7625 -18.576875 3.7625 -17.125 2.5 C-12.09373596 -1.28419859 -6.00953538 -0.91284082 0 0 Z " fill="#C6881B" transform="translate(249,62)"/>
<path d="M0 0 C1.71086719 2.56630078 2.72644982 4.57445633 3.75 7.4375 C4.03359375 8.19933594 4.3171875 8.96117188 4.609375 9.74609375 C5.08971187 12.51763751 4.47066513 13.66078989 3 16 C-0.44419134 5.62642369 -0.44419134 5.62642369 0 0 Z " fill="#C08E2F" transform="translate(222,80)"/>
<path d="M0 0 C0.66 0.33 1.32 0.66 2 1 C2 1.66 2 2.32 2 3 C2.33 3.66 2.66 4.32 3 5 C1.02 5.99 1.02 5.99 -1 7 C-0.34 7.66 0.32 8.32 1 9 C-0.32 8.67 -1.64 8.34 -3 8 C-3.75 6.25 -3.75 6.25 -4 4 C-2.0625 1.75 -2.0625 1.75 0 0 Z " fill="#D99C28" transform="translate(244,74)"/>
<path d="M0 0 C0.66 0.33 1.32 0.66 2 1 C1.67 1.33 1.34 1.66 1 2 C2.32 2.66 3.64 3.32 5 4 C2.24921116 4.91692961 0.64051087 5.10886083 -2.1875 5.0625 C-4.0746875 5.0315625 -4.0746875 5.0315625 -6 5 C-6 4.34 -6 3.68 -6 3 C-4.03533587 1.93224776 -2.03144641 0.93446535 0 0 Z " fill="#E0A128" transform="translate(489,621)"/>
<path d="M0 0 C0.66 0.99 1.32 1.98 2 3 C1 6 1 6 -2 8 C-2.33 8.99 -2.66 9.98 -3 11 C-3.66 11 -4.32 11 -5 11 C-3.55049545 7.2089881 -1.84827434 3.6125362 0 0 Z " fill="#C8932E" transform="translate(117,86)"/>
<path d="M0 0 C0.66 0.33 1.32 0.66 2 1 C-2.625 6.875 -2.625 6.875 -6 8 C-4.55746343 4.63408134 -2.66735273 2.48952921 0 0 Z " fill="#BB8C32" transform="translate(127,74)"/>
<path d="M0 0 C0.66 0.33 1.32 0.66 2 1 C0.71034824 2.37562854 -0.62689293 3.70766393 -2 5 C-2.66 5 -3.32 5 -4 5 C-4.66 6.32 -5.32 7.64 -6 9 C-5.67 6.69 -5.34 4.38 -5 2 C-4.01 2 -3.02 2 -2 2 C-1.34 1.34 -0.68 0.68 0 0 Z " fill="#D69823" transform="translate(231,65)"/>
<path d="M0 0 C-1.28519565 2.86697492 -2.57129254 4.97607712 -5 7 C-5.66 7 -6.32 7 -7 7 C-3.86206897 0 -3.86206897 0 0 0 Z " fill="#D1992C" transform="translate(315,422)"/>
<path d="M0 0 C1.15224028 0.92961422 2.29659176 1.8690125 3.4375 2.8125 C4.07558594 3.33457031 4.71367187 3.85664062 5.37109375 4.39453125 C7 6 7 6 8 9 C3.96189555 7.65396518 2.52704924 5.34663277 0 2 C0 1.34 0 0.68 0 0 Z " fill="#8C733D" transform="translate(495,528)"/>
<path d="M0 0 C0.66 0.33 1.32 0.66 2 1 C1.0479279 2.00596297 0.08812654 3.00461563 -0.875 4 C-1.40867188 4.556875 -1.94234375 5.11375 -2.4921875 5.6875 C-4 7 -4 7 -6 7 C-4.60667426 3.63279613 -3.0210714 2.0140476 0 0 Z " fill="#BC8D31" transform="translate(235,57)"/>
<path d="" fill="#2A2A7F" transform="translate(0,0)"/>
<path d="" fill="#00FFFF" transform="translate(0,0)"/>
<path d="" fill="#000080" transform="translate(0,0)"/>
<path d="" fill="#000000" transform="translate(0,0)"/>
<path d="" fill="#000000" transform="translate(0,0)"/>
<path d="" fill="#000080" transform="translate(0,0)"/>
<path d="" fill="#000000" transform="translate(0,0)"/>
<path d="" fill="#000000" transform="translate(0,0)"/>
<path d="" fill="#000000" transform="translate(0,0)"/>
<path d="" fill="#000000" transform="translate(0,0)"/>
<path d="" fill="#000000" transform="translate(0,0)"/>
<path d="" fill="#000000" transform="translate(0,0)"/>
<path d="" fill="#000000" transform="translate(0,0)"/>
<path d="" fill="#000000" transform="translate(0,0)"/>
<path d="" fill="#00FFFF" transform="translate(0,0)"/>
<path d="" fill="#000080" transform="translate(0,0)"/>
<path d="" fill="#008080" transform="translate(0,0)"/>
<path d="" fill="#808080" transform="translate(0,0)"/>
<path d="" fill="#000000" transform="translate(0,0)"/>
<path d="" fill="#000080" transform="translate(0,0)"/>
<path d="" fill="#000000" transform="translate(0,0)"/>
<path d="" fill="#000080" transform="translate(0,0)"/>
<path d="" fill="#000000" transform="translate(0,0)"/>
<path d="" fill="#000080" transform="translate(0,0)"/>
<path d="" fill="#000000" transform="translate(0,0)"/>
<path d="" fill="#000000" transform="translate(0,0)"/>
<path d="" fill="#0000FF" transform="translate(0,0)"/>
<path d="" fill="#000000" transform="translate(0,0)"/>
<path d="" fill="#008080" transform="translate(0,0)"/>
<path d="" fill="#000000" transform="translate(0,0)"/>
<path d="" fill="#000000" transform="translate(0,0)"/>
<path d="" fill="#000000" transform="translate(0,0)"/>
<path d="" fill="#000055" transform="translate(0,0)"/>
<path d="" fill="#005555" transform="translate(0,0)"/>
<path d="" fill="#000000" transform="translate(0,0)"/>
<path d="" fill="#000000" transform="translate(0,0)"/>
<path d="" fill="#000000" transform="translate(0,0)"/>
<path d="" fill="#000000" transform="translate(0,0)"/>
<path d="" fill="#808080" transform="translate(0,0)"/>
<path d="" fill="#000000" transform="translate(0,0)"/>
<path d="" fill="#000000" transform="translate(0,0)"/>
<path d="" fill="#005555" transform="translate(0,0)"/>
<path d="" fill="#808080" transform="translate(0,0)"/>
<path d="" fill="#808080" transform="translate(0,0)"/>
<path d="" fill="#000000" transform="translate(0,0)"/>
<path d="" fill="#000000" transform="translate(0,0)"/>
<path d="" fill="#0000FF" transform="translate(0,0)"/>
<path d="" fill="#008080" transform="translate(0,0)"/>
<path d="" fill="#000000" transform="translate(0,0)"/>
<path d="" fill="#000000" transform="translate(0,0)"/>
<path d="" fill="#000000" transform="translate(0,0)"/>
<path d="" fill="#000000" transform="translate(0,0)"/>
<path d="" fill="#808080" transform="translate(0,0)"/>
<path d="" fill="#000000" transform="translate(0,0)"/>
<path d="" fill="#000000" transform="translate(0,0)"/>
<path d="" fill="#000000" transform="translate(0,0)"/>
<path d="" fill="#0000FF" transform="translate(0,0)"/>
<path d="" fill="#000000" transform="translate(0,0)"/>
<path d="" fill="#000000" transform="translate(0,0)"/>
<path d="" fill="#000000" transform="translate(0,0)"/>
<path d="" fill="#008080" transform="translate(0,0)"/>
<path d="" fill="#000080" transform="translate(0,0)"/>
<path d="" fill="#000000" transform="translate(0,0)"/>
<path d="" fill="#000000" transform="translate(0,0)"/>
<path d="" fill="#808080" transform="translate(0,0)"/>
<path d="" fill="#000000" transform="translate(0,0)"/>
<path d="" fill="#000000" transform="translate(0,0)"/>
<path d="" fill="#000000" transform="translate(0,0)"/>
</svg>
