<?xml version="1.0" encoding="UTF-8"?>
<!-- Generator: visioncortex VTracer 0.6.4 -->
<svg version="1.1" xmlns="http://www.w3.org/2000/svg" width="1566" height="588">
<path d="M0 0 C17.40226122 -0.14011629 34.8043466 -0.24594421 52.20704269 -0.31087303 C60.28730873 -0.34182103 68.36722444 -0.38401891 76.44726562 -0.45263672 C83.48925611 -0.51241066 90.53099291 -0.55114231 97.57323003 -0.56453097 C101.30274813 -0.57235842 105.03154048 -0.59077221 108.76082611 -0.63438034 C112.92258493 -0.68265154 117.08307945 -0.6839412 121.24511719 -0.68115234 C122.48373505 -0.702724 123.72235291 -0.72429565 124.99850464 -0.746521 C126.13149994 -0.73827301 127.26449524 -0.73002502 128.43182373 -0.7215271 C129.41629864 -0.72705786 130.40077354 -0.73258862 131.41508102 -0.73828697 C134.42680859 0.12190216 135.7094459 1.28434095 137.2726723 3.99892628 C138.82913189 8.28116435 138.53412233 12.77619349 138.48774719 17.27688599 C138.49187046 18.41790201 138.49599372 19.55891804 138.50024194 20.7345103 C138.5091782 24.56169444 138.48950164 28.3881951 138.4699707 32.21533203 C138.46825845 34.95893519 138.47256708 37.7025213 138.47660828 40.44612122 C138.48283505 47.13238938 138.46783486 53.81845061 138.44588266 60.50467904 C138.42113602 68.31430672 138.41827506 76.123897 138.41647889 83.93355809 C138.41260036 97.89748203 138.39013448 111.86131343 138.35668945 125.82519531 C138.32439729 139.31901432 138.30304059 152.81278467 138.29516602 166.30664062 C138.29468052 167.13455274 138.29419503 167.96246486 138.29369483 168.81546523 C138.29176525 172.14521748 138.28985314 175.47496974 138.28797873 178.80472202 C138.27993404 192.50539741 138.26269298 206.20606337 138.24434257 219.90672827 C138.2402232 223.00869384 138.23649671 226.11065951 138.2331202 229.21262598 C138.22411026 237.38346209 138.21207201 245.5542753 138.19155417 253.72509153 C138.18310769 257.09865145 138.17646014 260.47218385 138.17303848 263.84575462 C138.15574314 279.4583927 137.871713 295.03215523 137.2399931 310.63252068 C136.98321089 317.06878774 136.83740595 323.50518863 136.71875 329.9453125 C136.68876924 331.55501319 136.68876924 331.55501319 136.6581828 333.19723308 C136.5841245 337.23364028 136.51403844 341.27009827 136.44775391 345.30664062 C136.39638343 348.37378804 136.33922078 351.44078381 136.28125 354.5078125 C136.26767456 355.43772003 136.25409912 356.36762756 136.2401123 357.32571411 C136.22339478 358.17616302 136.20667725 359.02661194 136.18945312 359.90283203 C136.17692505 360.64888702 136.16439697 361.39494202 136.15148926 362.16360474 C136 364 136 364 135 366 C125.43958257 364.48247342 119.39548947 360.67038059 112.8125 353.625 C105.3531455 345.87774059 95.97888041 341.74208016 86 338 C86 237.02 86 136.04 86 32 C65.87 32 45.74 32 25 32 C23.35 30.35 21.7 28.7 20 27 C18.88795519 26.04716865 17.764443 25.10739179 16.625 24.1875 C12.6426398 20.80852771 9.32400762 17.01650921 6 13 C5.3296875 12.21753906 4.659375 11.43507813 3.96875 10.62890625 C3.3190625 9.84386719 2.669375 9.05882813 2 8.25 C1.401875 7.53328125 0.80375 6.8165625 0.1875 6.078125 C-1 4 -1 4 -0.57421875 1.87011719 C-0.38472656 1.25297852 -0.19523437 0.63583984 0 0 Z " fill="#F1A921" transform="translate(1377,68)"/>
<path d="M0 0 C39.29485638 22.32898898 86.22678013 47.16297515 132.80981445 34.95532227 C136.94439326 33.53084116 140.88390011 31.87705417 144.80981445 29.95532227 C145.54973633 29.62274414 146.2896582 29.29016602 147.05200195 28.94750977 C149.02969037 28.03006131 149.02969037 28.03006131 150.12231445 25.64282227 C150.91529428 22.54299205 150.69707951 21.00991708 149.80981445 17.95532227 C148.35258787 15.84178827 148.35258787 15.84178827 146.49731445 13.95532227 C145.86696289 13.26567383 145.23661133 12.57602539 144.5871582 11.86547852 C144.00063477 11.23512695 143.41411133 10.60477539 142.80981445 9.95532227 C138.76001522 5.34305092 136.08368268 0.85832551 135.49731445 -5.35717773 C135.80981445 -8.04467773 135.80981445 -8.04467773 137.80981445 -10.04467773 C143.21564419 -10.89458881 148.43944824 -10.62057248 153.09106445 -7.49389648 C161.21702135 -0.64223737 167.39193941 7.81659691 168.80981445 18.51782227 C169.19099213 26.71891783 166.50563781 32.60617568 161.6027832 39.03344727 C149.45916717 52.05013374 131.73611885 56.43957413 114.49731445 57.19360352 C95.02995434 57.6538888 76.24358305 54.06651729 57.80981445 47.95532227 C57.47981445 48.28532227 57.14981445 48.61532227 56.80981445 48.95532227 C57.47625977 49.5005957 58.14270508 50.04586914 58.8293457 50.60766602 C60.21186523 51.73881836 60.21186523 51.73881836 61.62231445 52.89282227 C62.6380957 53.71911133 63.65387695 54.54540039 64.70043945 55.39672852 C66.61462613 56.96068731 68.49061525 58.54736836 70.35668945 60.17016602 C86.48639167 74.02067118 104.85031368 84.78520442 126.5168457 84.45922852 C129.89430582 83.94239298 131.35926497 83.27007304 133.80981445 80.95532227 C133.14981445 80.08907227 132.48981445 79.22282227 131.80981445 78.33032227 C129.63164023 74.65465326 129.01168458 73.12333381 129.80981445 68.95532227 C132.18481445 66.20532227 132.18481445 66.20532227 134.80981445 63.95532227 C135.46981445 63.29532227 136.12981445 62.63532227 136.80981445 61.95532227 C141.52533003 61.59401557 144.99315565 62.32979637 148.74731445 65.20532227 C152.52842987 70.24680949 153.57708128 74.66133657 152.80981445 80.95532227 C150.14830448 89.22001113 145.22621522 93.11468615 137.80981445 96.95532227 C127.28245918 102.07176416 113.61357705 99.18493182 103.01293945 95.56860352 C87.27695844 89.7424917 73.68763492 80.59728965 60.80981445 69.95532227 C59.43677622 68.84252864 58.06301731 67.73062392 56.6887207 66.61938477 C43.83119003 56.17932892 43.83119003 56.17932892 39.87231445 51.89282227 C34.73988802 46.49452689 28.38753802 42.47355393 22.33325195 38.18969727 C18.54655954 35.50541968 14.88756943 32.70951638 11.24731445 29.83032227 C-18.85821347 6.31889933 -18.85821347 6.31889933 -54.19018555 -4.04467773 C-56.08339213 3.06963762 -55.21202259 7.94609171 -51.56518555 14.26782227 C-51.1976416 14.89833496 -50.83009766 15.52884766 -50.45141602 16.1784668 C-41.02405283 32.37545723 -37.358834 50.58464467 -41.81518555 68.89282227 C-45.39865223 80.69204184 -51.90402016 90.33140962 -62.44018555 97.01782227 C-71.13295464 99.19101454 -79.10248732 99.0334289 -86.96362305 94.51391602 C-91.79741201 91.13026374 -97.0386433 87.00091906 -98.19018555 80.95532227 C-98.2403945 76.38630787 -97.72239644 72.92118647 -95.50268555 68.89282227 C-93.19018555 66.95532227 -93.19018555 66.95532227 -90.12768555 66.45532227 C-87.19018555 66.95532227 -87.19018555 66.95532227 -85.37768555 68.01782227 C-83.63288951 70.86459474 -83.49976407 73.67378992 -83.19018555 76.95532227 C-82.01456055 77.41938477 -82.01456055 77.41938477 -80.81518555 77.89282227 C-78.19018555 78.95532227 -78.19018555 78.95532227 -76.19018555 79.95532227 C-72.01399233 80.44663911 -69.09876737 80.26787108 -65.56518555 78.01782227 C-59.09797514 72.90218617 -56.10631102 64.62756218 -54.56518555 56.76782227 C-53.20335591 42.92255432 -56.18502316 32.3550984 -62.56518555 20.08032227 C-62.92797607 19.37891113 -63.2907666 18.6775 -63.66455078 17.95483398 C-67.48094952 10.90208218 -72.20013356 5.42063258 -78.56518555 0.51782227 C-79.43916992 -0.16151367 -80.3131543 -0.84084961 -81.21362305 -1.54077148 C-81.86588867 -2.03706055 -82.5181543 -2.53334961 -83.19018555 -3.04467773 C-82.97362305 -2.43624023 -82.75706055 -1.82780273 -82.53393555 -1.20092773 C-78.71374285 10.82560483 -78.35717811 23.54291642 -84.19018555 34.95532227 C-88.44591789 42.88760445 -93.71665788 47.3238354 -101.37768555 51.83032227 C-108.88686368 54.04614532 -116.42629255 54.18892812 -123.62768555 50.89282227 C-128.14404987 48.29426581 -131.25659476 45.23155962 -134.19018555 40.95532227 C-134.59108398 40.3868457 -134.99198242 39.81836914 -135.4050293 39.23266602 C-138.27000945 34.75677176 -139.10743157 31.16882298 -139.19018555 25.95532227 C-137.69547239 21.78585926 -136.0866516 19.13275918 -132.19018555 16.95532227 C-128.91785393 15.71714274 -127.24723399 15.94158838 -123.81518555 16.76782227 C-118.68540352 19.13541397 -116.05595555 24.31260066 -113.19018555 28.95532227 C-107.70090587 27.77135998 -104.89572657 26.4237688 -101.19018555 21.95532227 C-99.23708864 16.09603155 -99.15331339 9.38172898 -101.75268555 3.70532227 C-107.38538612 -5.8449313 -116.04189026 -10.75377828 -126.43237305 -14.08374023 C-147.10640377 -19.38858745 -168.1583773 -13.68751193 -186.19018555 -3.04467773 C-187.19307617 -2.46588867 -188.1959668 -1.88709961 -189.22924805 -1.29077148 C-199.86633952 5.1663925 -208.90261489 13.46834429 -217.88842773 21.99462891 C-231.56213336 34.95532227 -231.56213336 34.95532227 -236.19018555 34.95532227 C-236.31458006 25.76789905 -233.65985155 20.20365785 -228.19018555 12.95532227 C-227.5044043 12.0362207 -226.81862305 11.11711914 -226.11206055 10.17016602 C-201.52640715 -21.26940154 -167.41415116 -31.85934858 -129.39404297 -36.66870117 C-81.13276818 -42.33222043 -40.95384669 -23.38038095 0 0 Z " fill="#F2AC25" transform="translate(1203.190185546875,97.044677734375)"/>
<path d="M0 0 C12.24214042 3.91507575 24.52621992 7.47579329 36.98486328 10.64868164 C40.1366171 11.45270047 43.28283002 12.27650047 46.42919922 13.10131836 C59.95615073 16.6132525 72.90398334 19.51359853 86.93701172 19.66772461 C87.63560303 19.67723145 88.33419434 19.68673828 89.05395508 19.6965332 C93.75640041 19.66607476 97.58028232 18.86967482 101.99951172 17.41772461 C101.83902344 16.09708008 101.83902344 16.09708008 101.67529297 14.74975586 C101.55541016 13.58831055 101.43552734 12.42686523 101.31201172 11.23022461 C101.12058594 9.50739258 101.12058594 9.50739258 100.92529297 7.74975586 C101.00877782 4.00172536 101.74717462 2.36516095 103.99951172 -0.58227539 C105.81201172 -1.58227539 105.81201172 -1.58227539 107.99951172 -1.58227539 C113.15011675 0.24189722 115.38740869 2.67724134 117.99951172 7.41772461 C119.61286351 12.66923882 120.17761341 18.55312879 118.05810547 23.70678711 C113.96270479 30.56241082 109.39433103 33.58648479 101.82446289 35.77832031 C97.12879482 36.84114588 92.54754389 36.90553423 87.74951172 36.85522461 C86.70666016 36.84692627 85.66380859 36.83862793 84.58935547 36.83007812 C59.09648111 36.28870133 34.80531494 28.08889021 11.56958008 18.18896484 C-10.15308618 8.98972207 -32.80326289 0.89535196 -56.00048828 -3.58227539 C-56.77005859 -3.73486816 -57.53962891 -3.88746094 -58.33251953 -4.04467773 C-70.93839483 -6.51553522 -83.27005801 -7.77766942 -96.12548828 -7.76977539 C-97.23698242 -7.77041992 -98.34847656 -7.77106445 -99.49365234 -7.77172852 C-109.66643296 -7.70870369 -119.73526945 -6.95866217 -129.85986328 -6.01977539 C-133.58910019 -5.67710323 -137.25149552 -5.48026198 -141.00048828 -5.58227539 C-133.13271558 -15.04561039 -113.2343541 -16.00044635 -101.65673828 -17.14477539 C-65.99863824 -20.18526929 -33.57083492 -10.7576866 0 0 Z " fill="#EEAA26" transform="translate(1184.00048828125,63.582275390625)"/>
<path d="M0 0 C1.02066881 -0.00367669 2.04133763 -0.00735338 3.0929358 -0.01114148 C6.5052607 -0.02213499 9.9175551 -0.02601465 13.32989502 -0.02983093 C15.77923173 -0.03609841 18.22856749 -0.04274546 20.67790222 -0.04974365 C28.01654604 -0.06892599 35.35518176 -0.07956012 42.69384325 -0.08847144 C46.15124562 -0.09286097 49.60864649 -0.09822561 53.06604767 -0.10346031 C64.55789243 -0.12045676 76.04973626 -0.1349549 87.54159164 -0.14220905 C90.51871492 -0.14411883 93.49583818 -0.1460392 96.47296143 -0.147995 C97.58283788 -0.14872061 97.58283788 -0.14872061 98.71513608 -0.14946087 C110.72428473 -0.15777665 122.73333429 -0.18314659 134.7424396 -0.21557567 C147.07450303 -0.24860573 159.40651595 -0.26665366 171.73862386 -0.26985329 C178.66194018 -0.27202089 185.58511147 -0.28080717 192.5083847 -0.30631447 C199.01236904 -0.33022273 205.5161384 -0.33387298 212.02017403 -0.32355309 C214.41196371 -0.32305507 216.80376584 -0.32945303 219.19551659 -0.34310913 C222.45024416 -0.36065935 225.70401405 -0.35380539 228.95874023 -0.34057617 C229.914073 -0.35154542 230.86940576 -0.36251466 231.853688 -0.37381631 C238.19642433 -0.31118688 238.19642433 -0.31118688 240.87488174 2.00968647 C241.72540283 4.14717102 241.72540283 4.14717102 241.10040283 6.83467102 C239.72540283 9.14717102 239.72540283 9.14717102 236.72540283 10.14717102 C234.4767156 10.29444227 232.22417275 10.3848994 229.97149658 10.44599915 C229.29234192 10.46543579 228.61318726 10.48487244 227.91345215 10.50489807 C225.66337195 10.56766651 223.41318328 10.62333144 221.16290283 10.67842102 C219.57085868 10.72025323 217.9788177 10.76220664 216.38677979 10.80427551 C200.94969383 11.20188731 185.51129281 11.441123 170.0703125 11.61989594 C167.67424719 11.64776604 165.27819389 11.67653291 162.88214111 11.70545959 C128.0758881 12.12282476 93.26824539 12.42652499 58.46072006 12.71538377 C53.22519808 12.7590485 47.9897024 12.80526995 42.75421143 12.85249329 C36.30724894 12.91054231 29.86026684 12.9645782 23.41322994 13.01369941 C20.07412746 13.03921967 16.73508408 13.06697526 13.39602661 13.09813309 C9.7271922 13.13199659 6.0583657 13.15921235 2.38946533 13.18476868 C1.31879318 13.19614616 0.24812103 13.20752365 -0.85499573 13.21924591 C-15.4285581 13.30094544 -15.4285581 13.30094544 -19.27459717 10.89717102 C-20.66862938 8.45761464 -20.68921411 6.91128394 -20.27459717 4.14717102 C-19.21209717 2.39717102 -19.21209717 2.39717102 -17.27459717 1.14717102 C-11.51172791 0.04655796 -5.85336069 -0.00114025 0 0 Z " fill="#736557" transform="translate(75.27459716796875,66.85282897949219)"/>
<path d="M0 0 C3.84619141 0.79882812 3.84619141 0.79882812 5.23046875 2.609375 C10.10435235 13.51095955 9.21846274 26.15765685 9.52734375 37.90234375 C9.54776167 38.65528151 9.56817959 39.40821926 9.58921623 40.18397331 C10.31902085 67.92522707 10.34484457 95.68620638 10.51740968 123.43532312 C10.56201465 130.57562833 10.61108508 137.71589946 10.66066074 144.85617161 C10.7089519 151.81299897 10.75551184 158.76983778 10.8016727 165.72667956 C10.81612282 167.8988018 10.83074363 170.07092284 10.84536934 172.2430439 C10.89861057 180.21843208 10.94504126 188.1938143 10.98167801 196.16930008 C10.99409433 198.76526306 11.00815015 201.36121862 11.02369308 203.95716476 C11.04569138 207.78516124 11.0607148 211.61312657 11.07397461 215.44116211 C11.08166398 216.57799973 11.08935335 217.71483736 11.09727573 218.88612461 C11.1325119 235.5738739 11.1325119 235.5738739 8.3125 239.125 C5.16251788 240.31688513 3.21535776 239.88935428 0 239 C-3 237 -3 237 -3.6159668 235.21240234 C-3.72593994 234.51066895 -3.83591309 233.80893555 -3.94921875 233.0859375 C-4.07490234 232.32539063 -4.20058594 231.56484375 -4.33007812 230.78125 C-4.44802734 229.9871875 -4.56597656 229.193125 -4.6875 228.375 C-4.81705078 227.57320312 -4.94660156 226.77140625 -5.08007812 225.9453125 C-5.39828386 223.96536573 -5.70065637 221.98288615 -6 220 C-4.02 220.99 -2.04 221.98 0 223 C-0.03536362 221.85901855 -0.07072723 220.71803711 -0.10716248 219.54248047 C-3.57979414 107.35136911 -3.57979414 107.35136911 -3.9642334 69.29559326 C-4.00303264 65.72056769 -4.05048547 62.14571222 -4.09863281 58.57080078 C-4.18231323 52.17348235 -4.24158439 45.77632119 -4.28408813 39.37860107 C-4.30272164 36.95784656 -4.32770862 34.53713081 -4.35971069 32.11651611 C-4.40148022 28.78971031 -4.41694221 25.4637539 -4.42578125 22.13671875 C-4.44323395 21.16859756 -4.46068665 20.20047638 -4.47866821 19.20301819 C-4.45671529 12.15062297 -2.76079747 6.46749491 0 0 Z " fill="#726456" transform="translate(1429,124)"/>
<path d="M0 0 C4.75356487 2.74650415 7.32756167 4.70394529 9 10 C9.88193752 17.9619359 8.76495808 25.86181428 7.6875 33.75 C7.51130127 35.06206421 7.51130127 35.06206421 7.33154297 36.40063477 C5.78107734 46.87865374 3.16146956 56.59420486 -5.66308594 63.25537109 C-10.27810608 66.44954645 -15.10039303 69.26846332 -20 72 C-20.62422852 72.34869141 -21.24845703 72.69738281 -21.89160156 73.05664062 C-34.88350893 80.18917667 -48.1358165 85.52843255 -63.09765625 82.33984375 C-81.31254888 76.91063059 -95.97733304 63.34004319 -105.3125 47.1875 C-110.63234494 38.2652047 -116.19971769 30.66391537 -124.6875 24.5 C-129.62291027 20.88935775 -132.24090317 16.37753383 -135 11 C-134.34 10.67 -133.68 10.34 -133 10 C-132.42894531 10.49628906 -131.85789062 10.99257812 -131.26953125 11.50390625 C-126.59562227 15.41988405 -122.11190762 18.5694239 -116.625 21.25 C-108.14165796 25.59708533 -102.44644705 32.17551494 -96.0703125 39.09375 C-93.41642385 41.53733049 -90.48747423 43.41270679 -87.4375 45.3125 C-86.18097243 46.10544158 -84.92446221 46.89841063 -83.66796875 47.69140625 C-83.04712402 48.08086426 -82.4262793 48.47032227 -81.78662109 48.87158203 C-80.17767474 49.88778182 -78.5820812 50.92504949 -76.98828125 51.96484375 C-62.62155426 61.39857011 -62.62155426 61.39857011 -46 63 C-32.77695763 59.85104702 -16.27263927 54.24404018 -7.8125 43.125 C-5.32467738 38.50903997 -5.04306301 33.41589371 -4.43359375 28.28125 C-4 25 -4 25 -2.9375 21.5 C-1.66925726 16.7652271 -1.50534293 12.09043932 -1.24609375 7.20703125 C-1.04947864 4.64479304 -0.73477427 2.4472234 0 0 Z " fill="#572A21" transform="translate(1368,157)"/>
<path d="M0 0 C1.216875 -0.03738281 2.43375 -0.07476562 3.6875 -0.11328125 C7 0.3125 7 0.3125 9.40234375 2.14453125 C11 4.3125 11 4.3125 11.5625 7.3125 C11 10.3125 11 10.3125 9.125 12.5 C6.18944027 14.20262464 4.06347322 14.84401367 0.8125 15.625 C-1.78317077 16.2932281 -1.78317077 16.2932281 -4 17.3125 C-5.50103201 20.13444019 -5.75630099 21.26355457 -6 24.3125 C-6.15082031 25.19292969 -6.30164062 26.07335937 -6.45703125 26.98046875 C-7.90839379 37.24851963 -5.45015953 46.14393268 0.375 54.6875 C2.61912183 57.66350605 4.99100083 60.50162861 7.4375 63.3125 C10 66.3125 10 66.3125 10 68.3125 C10.66 68.3125 11.32 68.3125 12 68.3125 C13.7265625 70.0625 13.7265625 70.0625 15.625 72.3125 C16.25664063 73.055 16.88828125 73.7975 17.5390625 74.5625 C18.26222656 75.42875 18.26222656 75.42875 19 76.3125 C15.96793367 78.11266966 14.27033739 78.56178787 10.82421875 77.79296875 C5.47338148 76.42048173 1.31414202 73.74506391 -3.1875 70.625 C-3.95513672 70.12033203 -4.72277344 69.61566406 -5.51367188 69.09570312 C-15.45822498 62.35522197 -22.42816171 52.82826281 -26 41.3125 C-28.13615705 29.9072789 -26.42800549 20.02593052 -20 10.3125 C-19.63261719 9.66796875 -19.26523438 9.0234375 -18.88671875 8.359375 C-16.53130127 4.36582767 -13.67797891 2.17675683 -9.28125 0.7578125 C-6.17276409 0.15101902 -3.16561343 0.06371468 0 0 Z " fill="#572A21" transform="translate(1058,83.6875)"/>
<path d="M0 0 C1.27101563 0.03907471 2.54203125 0.07814941 3.8515625 0.1184082 C5.00785156 0.16054443 6.16414062 0.20268066 7.35546875 0.24609375 C8.8717688 0.30108032 8.8717688 0.30108032 10.41870117 0.35717773 C12.8125 0.5625 12.8125 0.5625 14.8125 1.5625 C14.4825 2.5525 14.1525 3.5425 13.8125 4.5625 C3.75607728 6.50438717 -6.30280255 7.3688763 -16.5 8.125 C-17.77615677 8.22163437 -17.77615677 8.22163437 -19.07809448 8.32022095 C-42.76318845 10.10111535 -66.43411301 10.7868237 -90.1875 10.5625 C-90.1875 10.2325 -90.1875 9.9025 -90.1875 9.5625 C-85.2375 8.9025 -80.2875 8.2425 -75.1875 7.5625 C-82.58919918 7.82450368 -89.99071089 8.09116103 -97.39208984 8.36206055 C-99.9079946 8.45349797 -102.42394524 8.54368183 -104.93994141 8.63256836 C-108.56425678 8.760831 -112.18838112 8.89365722 -115.8125 9.02734375 C-116.93052002 9.06593002 -118.04854004 9.1045163 -119.20043945 9.14427185 C-124.16730881 9.33145392 -128.98928556 9.66525936 -133.91546631 10.34757996 C-139.64953865 10.889987 -145.44008093 10.72746381 -151.1953125 10.73046875 C-152.64924145 10.7336876 -154.10317009 10.73705214 -155.55709839 10.74055481 C-158.59129589 10.74651475 -161.62546503 10.74839775 -164.65966797 10.74780273 C-168.53759194 10.74770082 -172.41533401 10.76139683 -176.2932148 10.77857494 C-179.29072906 10.78971391 -182.28819943 10.79172143 -185.28573227 10.79119301 C-186.71539822 10.79236857 -188.14506547 10.79676643 -189.57471085 10.80452538 C-191.57468536 10.81437139 -193.57471392 10.81017111 -195.57470703 10.80541992 C-197.27725143 10.80755745 -197.27725143 10.80755745 -199.01419067 10.80973816 C-202.35521117 10.54943332 -205.06558815 9.75108504 -208.1875 8.5625 C-207.4538269 6.60913086 -207.4538269 6.60913086 -206.1875 4.5625 C-204.29055786 3.95532227 -204.29055786 3.95532227 -201.92626953 3.81640625 C-200.57568451 3.73350342 -200.57568451 3.73350342 -199.19781494 3.64892578 C-193.58523907 3.4877894 -187.98179459 3.46229566 -182.3671875 3.5 C-180.38275243 3.50578629 -178.39831733 3.51156683 -176.4138813 3.51701355 C-172.96340067 3.52786427 -169.51295428 3.54537766 -166.0625 3.5625 C-161.93222547 3.58295763 -157.80197227 3.60217668 -153.67166138 3.61352539 C-151.10952978 3.62100717 -148.54740618 3.63299724 -145.98532104 3.65014648 C-139.92855681 3.66727029 -134.18077276 3.38271861 -128.1875 2.5625 C-125.07113958 2.39801383 -121.9560977 2.35555735 -118.8359375 2.31640625 C-117.01244614 2.28471179 -115.18895998 2.25271748 -113.36547852 2.22045898 C-112.41891388 2.20506073 -111.47234924 2.18966248 -110.49710083 2.17379761 C-96.54764731 1.94184103 -82.66109304 1.60297997 -68.75 0.5 C-45.88553728 -1.25417703 -22.90335796 -0.71660943 0 0 Z " fill="#726458" transform="translate(677.1875,56.4375)"/>
<path d="M0 0 C0.5625 1.9375 0.5625 1.9375 1 4 C-4.29288025 9.29288025 -27.02134485 6.2541946 -34.3125 6.31640625 C-36.37353867 6.33704906 -38.43457382 6.35804699 -40.49560547 6.37937927 C-44.80222545 6.4230947 -49.10885894 6.46403814 -53.41552734 6.50268555 C-58.87352953 6.55167164 -64.33147309 6.60524767 -69.78941345 6.66066074 C-75.06792763 6.71409539 -80.34646185 6.76540197 -85.625 6.81640625 C-86.6012735 6.82596407 -87.577547 6.83552189 -88.58340454 6.84536934 C-105.68194211 7.01013034 -105.68194211 7.01013034 -113.74731445 6.99362183 C-114.68590302 6.99174582 -115.62449158 6.98986982 -116.59152222 6.98793697 C-118.35668826 6.98298355 -120.12185015 6.97568549 -121.88699341 6.9654398 C-127.94377005 6.94598937 -133.94856051 7.22514806 -139.98945618 7.64138699 C-146.6683396 8.08782146 -153.30801773 8.09544824 -160 8 C-160 7.01 -160 6.02 -160 5 C-158.68 5 -157.36 5 -156 5 C-155.67 4.01 -155.34 3.02 -155 2 C-153.9941687 1.96241577 -153.9941687 1.96241577 -152.96801758 1.92407227 C-149.9160041 1.80769199 -146.86426742 1.68515652 -143.8125 1.5625 C-142.75740234 1.52318359 -141.70230469 1.48386719 -140.61523438 1.44335938 C-139.59365234 1.40146484 -138.57207031 1.35957031 -137.51953125 1.31640625 C-136.11344604 1.26141968 -136.11344604 1.26141968 -134.67895508 1.20532227 C-132.05485659 1.07046081 -132.05485659 1.07046081 -129.76074219 0.48852539 C-125.6164776 -0.24482033 -121.50899191 -0.14227037 -117.30859375 -0.1328125 C-115.89695702 -0.13424759 -115.89695702 -0.13424759 -114.45680237 -0.13571167 C-112.46558566 -0.13639122 -110.47436673 -0.13455262 -108.4831543 -0.13037109 C-105.47244118 -0.12506162 -102.46188011 -0.13030196 -99.45117188 -0.13671875 C-90.78460625 -0.13951003 -82.20583988 -0.09617439 -73.57446289 0.77294922 C-69.05336939 1.17168008 -64.53543383 1.14486321 -60 1.125 C-59.08605469 1.12886719 -58.17210937 1.13273437 -57.23046875 1.13671875 C-56.35003906 1.13542969 -55.46960938 1.13414063 -54.5625 1.1328125 C-53.78003906 1.13168457 -52.99757813 1.13055664 -52.19140625 1.12939453 C-50.00092148 1.00005441 -48.11454909 0.56375418 -46 0 C-30.74908511 -1.48120396 -15.23647629 -1.67302485 0 0 Z " fill="#736557" transform="translate(993,57)"/>
<path d="M0 0 C2.38389398 1.69546637 2.9396528 2.71696315 3.5546875 5.6015625 C3.66039062 6.59929687 3.76609375 7.59703125 3.875 8.625 C4.76594053 14.67901396 6.5421755 18.98712035 10 24 C10.42023438 24.63808594 10.84046875 25.27617187 11.2734375 25.93359375 C20.38369468 38.17714747 40.96633863 39.69641844 55 42 C55 42.33 55 42.66 55 43 C47.15832761 44.05692106 39.40688226 44.2178255 31.5 44.25 C30.23285156 44.270625 28.96570312 44.29125 27.66015625 44.3125 C14.78951653 44.36607186 6.79156644 41.4556628 -3 33 C-8.79093498 26.92715338 -12.04733909 20.28233825 -12.4375 11.875 C-12.29661059 7.06251442 -11.14430471 4.60670247 -8 1 C-5.20129973 -0.39935013 -3.09501208 -0.25265405 0 0 Z " fill="#572A21" transform="translate(1087,168)"/>
<path d="M0 0 C3.46482088 0.54350131 3.86875389 0.83485202 6 3.375 C9.77739385 8.77127693 9.80490953 12.99955963 9.1875 19.5 C7.06637058 26.77061832 1.40118572 33.35754285 -4.8125 37.5 C-8.62379003 37.91577709 -10.90369374 38.0739829 -14.1875 36 C-16.39033622 32.6110212 -17.00643215 29.47560898 -16.8125 25.5 C-15.20135622 20.58177163 -12.66306697 16.77585045 -9.8125 12.5 C-8.48366417 9.91037113 -7.21137714 7.30018761 -5.9609375 4.671875 C-4.32617996 1.58029272 -3.49630329 0.62156503 0 0 Z " fill="#572A21" transform="translate(1389.8125,111.5)"/>
<path d="M0 0 C0.33 0 0.66 0 1 0 C1.02529705 6.51447727 1.04284444 13.02894193 1.05493164 19.54345703 C1.05996909 21.76090976 1.06679922 23.97835916 1.07543945 26.19580078 C1.08753072 29.37793805 1.0932341 32.56003151 1.09765625 35.7421875 C1.10281754 36.73805878 1.10797882 37.73393005 1.11329651 38.75997925 C1.11337204 39.68078278 1.11344757 40.6015863 1.11352539 41.55029297 C1.115746 42.3630368 1.11796661 43.17578064 1.12025452 44.01315308 C1 46 1 46 0 48 C-9.56041743 46.48247342 -15.60451053 42.67038059 -22.1875 35.625 C-29.41461294 28.11894585 -39.13619787 23.15641668 -49 20 C-49 16.04 -49 12.08 -49 8 C-48.67 9.32 -48.34 10.64 -48 12 C-47.2265625 12.17015625 -46.453125 12.3403125 -45.65625 12.515625 C-39.23453664 14.00978603 -33.75978843 15.7878103 -28 19 C-28 19.66 -28 20.32 -28 21 C-27.113125 21.226875 -26.22625 21.45375 -25.3125 21.6875 C-20.78775423 23.4803238 -18.41136899 26.25874476 -15.37890625 30 C-11.53782568 34.65378136 -8.744739 37.085087 -3 39 C-2.01 39.495 -2.01 39.495 -1 40 C-0.67 26.8 -0.34 13.6 0 0 Z " fill="#DDA02A" transform="translate(1512,386)"/>
<path d="M0 0 C1.64476466 4.93429399 -0.13271821 9.27206766 -2 14 C-7.05090138 22.02545069 -7.05090138 22.02545069 -11 24 C-22.43041186 25.32004756 -22.43041186 25.32004756 -27.5625 22.68359375 C-32.3514119 18.62934447 -36.61684631 13.52501396 -37.3125 7.125 C-37 5 -37 5 -36 4 C-32.41259501 3.59861203 -30.65732984 3.48606672 -27.76171875 5.75 C-27.07722656 6.4925 -26.39273437 7.235 -25.6875 8 C-22.58360614 10.94713155 -20.66126042 12.60357709 -16.3125 12.75 C-10.50432948 12.16413236 -6.89485044 9.1843988 -3.1875 4.875 C-1.04360164 2.24194476 -1.04360164 2.24194476 0 0 Z " fill="#C7891B" transform="translate(1107,118)"/>
<path d="M0 0 C2.47894956 1.10175536 4.3245446 2.266293 6.4375 4 C11.18396024 7.70455433 15.30538287 8.4970447 21.23828125 8.390625 C27.25768324 7.53922444 32.58393152 4.49299745 37.69921875 1.33203125 C40 0 40 0 42 0 C39.56742394 7.49932289 33.17972445 12.96017677 26.6875 17.125 C17.75514155 19.24454268 10.144578 18.85522138 2.0234375 14.484375 C-0.15650172 12.88519179 -1.50013073 11.23547394 -3 9 C-2.34 9 -1.68 9 -1 9 C-1.020625 7.88625 -1.04125 6.7725 -1.0625 5.625 C-1 2 -1 2 0 0 Z " fill="#C68A1E" transform="translate(1114,177)"/>
<path d="M0 0 C5.61 0 11.22 0 17 0 C17 0.33 17 0.66 17 1 C15.35 1 13.7 1 12 1 C11.67 2.65 11.34 4.3 11 6 C11.66 6 12.32 6 13 6 C13.33 7.32 13.66 8.64 14 10 C13.01 10 12.02 10 11 10 C11 10.66 11 11.32 11 12 C11.89831543 11.99476318 12.79663086 11.98952637 13.72216797 11.98413086 C17.05062499 11.96710275 20.37903581 11.95455663 23.70751953 11.94506836 C25.1489332 11.94003526 26.59034176 11.93320827 28.03173828 11.92456055 C30.10190085 11.91245017 32.17199601 11.90676153 34.2421875 11.90234375 C35.4885498 11.89710693 36.73491211 11.89187012 38.01904297 11.88647461 C41 12 41 12 43 13 C43 13.66 43 14.32 43 15 C37.37670921 15.12365152 31.75421047 15.2143631 26.12988281 15.2746582 C24.21698217 15.29979381 22.30417749 15.33390784 20.39160156 15.37719727 C17.64103527 15.43789252 14.89173901 15.46621845 12.140625 15.48828125 C10.85916595 15.52699089 10.85916595 15.52699089 9.55181885 15.56648254 C3.63918669 15.56927187 3.63918669 15.56927187 0.41308594 12.69604492 C-1.48365938 9.07722001 -0.87069267 6.91811699 0 3 C0 2.01 0 1.02 0 0 Z " fill="#CF8F1B" transform="translate(1399,77)"/>
<path d="M0 0 C0.33 0 0.66 0 1 0 C1 35.31 1 70.62 1 107 C0.67 107 0.34 107 0 107 C-1.59280453 82.57569752 -2.17046996 58.2882934 -1.6875 33.8125 C-1.66430695 32.58345947 -1.64111389 31.35441895 -1.61721802 30.08813477 C-1.54764641 26.56505942 -1.46967506 23.04231502 -1.38671875 19.51953125 C-1.36364655 18.47223343 -1.34057434 17.42493561 -1.31680298 16.34590149 C-1.16914198 10.82878831 -0.79248604 5.46282709 0 0 Z " fill="#D7951D" transform="translate(1500,281)"/>
<path d="M0 0 C0.33 0.66 0.66 1.32 1 2 C2.65204456 2.70211894 4.31923769 3.36971413 6 4 C7 5 7 5 7.0546875 7.328125 C6.56601667 15.2743376 6.56601667 15.2743376 3.5625 19.125 C1 21 1 21 -1 22 C-1.268125 21.278125 -1.53625 20.55625 -1.8125 19.8125 C-2.90767384 16.97356195 -2.90767384 16.97356195 -4.625 14.5625 C-6.34895883 11.34966764 -6.59968099 9.59808592 -6 6 C-3.5625 3.1875 -3.5625 3.1875 -1 1 C-0.67 0.67 -0.34 0.34 0 0 Z " fill="#C1861D" transform="translate(1339,160)"/>
<path d="M0 0 C5.46496752 2.12766522 10.75261487 4.37630743 16 7 C17.0725 7.28875 18.145 7.5775 19.25 7.875 C20.1575 8.24625 21.065 8.6175 22 9 C22.66666667 10.66666667 23.33333333 12.33333333 24 14 C26.49579913 16.53729697 29.25185791 18.74295189 32 21 C33.82154391 22.60915045 35.63996902 24.2217302 37.45703125 25.8359375 C39.11513488 27.21555092 39.11513488 27.21555092 42 28 C42 28.66 42 29.32 42 30 C44.31 30 46.62 30 49 30 C49.33 29.34 49.66 28.68 50 28 C49.505 30.475 49.505 30.475 49 33 C39.43958257 31.48247342 33.39548947 27.67038059 26.8125 20.625 C19.58538706 13.11894585 9.86380213 8.15641668 0 5 C0 3.35 0 1.7 0 0 Z " fill="#8F733E" transform="translate(1463,401)"/>
<path d="M0 0 C3 1.125 3 1.125 5 3 C6 6 6 6 6 9 C4.83984375 10.6640625 4.83984375 10.6640625 3 12 C0.44140625 12.3984375 0.44140625 12.3984375 -2.4375 12.375 C-3.38496094 12.38273437 -4.33242188 12.39046875 -5.30859375 12.3984375 C-8.40355308 11.94025774 -9.78910172 11.19033179 -12 9 C-12.4375 6 -12.4375 6 -12 3 C-8.82000814 -1.22017612 -4.85892649 -0.61375914 0 0 Z " fill="#736557" transform="translate(395,63)"/>
<path d="M0 0 C1.9375 1.0625 1.9375 1.0625 3 3 C3.75336323 9.02690583 3.75336323 9.02690583 1.5 11.9375 C-2.33491277 13.56733793 -4.82970253 13.52956158 -9 13 C-11.125 10.875 -11.125 10.875 -12 8 C-11.375 4.8125 -11.375 4.8125 -10 2 C-6.30513897 -0.46324069 -4.36706908 -0.38991688 0 0 Z " fill="#736557" transform="translate(776,59)"/>
<path d="M0 0 C2.70366919 1.41676988 3.88272922 2.62452546 6 5 C6.85411372 10.21958382 5.63464247 13.49915244 3 18 C2.01 18 1.02 18 0 18 C-0.020625 17.01 -0.04125 16.02 -0.0625 15 C-0.66812971 10.4853058 -3.24439272 7.99541469 -6.30859375 4.796875 C-8 3 -8 3 -10 0 C-6.14217025 -1.28594325 -3.95337324 -0.93808857 0 0 Z " fill="#C4881E" transform="translate(1354,104)"/>
<path d="M0 0 C0.33 0 0.66 0 1 0 C1.02467081 6.08723655 1.04284604 12.17444417 1.05493164 18.26171875 C1.05996852 20.33366401 1.06679825 22.4056057 1.07543945 24.47753906 C1.08753321 27.45118082 1.09323467 30.42477569 1.09765625 33.3984375 C1.10281754 34.32868744 1.10797882 35.25893738 1.11329651 36.21737671 C1.11340981 37.50848862 1.11340981 37.50848862 1.11352539 38.82568359 C1.115746 39.58513275 1.11796661 40.34458191 1.12025452 41.12704468 C1 43 1 43 0 45 C-2.31 45 -4.62 45 -7 45 C-7 44.34 -7 43.68 -7 43 C-7.71027344 42.94457031 -8.42054687 42.88914062 -9.15234375 42.83203125 C-12.91911675 41.73145148 -14.96113336 39.47648255 -17.5625 36.6875 C-18.03107422 36.20087891 -18.49964844 35.71425781 -18.98242188 35.21289062 C-20.32795381 33.81466653 -21.66417148 32.40749742 -23 31 C-24.32888893 29.66223702 -25.66037746 28.32701432 -27 27 C-23.50538587 27 -22.81853931 27.60708151 -20.125 29.6875 C-19.05572266 30.50927734 -19.05572266 30.50927734 -17.96484375 31.34765625 C-16 33 -16 33 -13.6875 35.625 C-10.09998937 39.08752512 -10.09998937 39.08752512 0 42 C0 28.14 0 14.28 0 0 Z " fill="#B78A34" transform="translate(1512,386)"/>
<path d="M0 0 C0.33 0 0.66 0 1 0 C1.02505615 1.28874023 1.0501123 2.57748047 1.07592773 3.90527344 C1.17168186 8.78847523 1.27145807 13.67158865 1.37231445 18.5546875 C1.41504057 20.6490672 1.45674412 22.74346806 1.49731445 24.83789062 C1.70824155 35.69152186 1.95826561 46.5440134 2.41015625 57.390625 C2.45323158 58.6558902 2.45323158 58.6558902 2.49717712 59.94671631 C2.53598852 64.44620882 2.53598852 64.44620882 5 68 C3.35 68 1.7 68 0 68 C-0.77943372 54.25249367 -1.16073648 40.55127169 -1.13037109 26.78173828 C-1.12488743 23.8140784 -1.13042416 20.8465623 -1.13671875 17.87890625 C-1.13605983 15.97916633 -1.13478256 14.07942651 -1.1328125 12.1796875 C-1.13483673 11.29860321 -1.13686096 10.41751892 -1.13894653 9.50973511 C-1.13579437 8.69683014 -1.13264221 7.88392517 -1.12939453 7.04638672 C-1.12859894 6.33473358 -1.12780334 5.62308044 -1.12698364 4.88986206 C-1 3 -1 3 0 0 Z " fill="#E39E1E" transform="translate(1481,227)"/>
<path d="M0 0 C0.495 0.99 0.495 0.99 1 2 C-12.08991751 8.77870728 -24.32736014 11.21288428 -39 11 C-36.49403226 8.49403226 -34.6745569 8.21868252 -31.25 7.34375 C-30.08339844 7.04339844 -28.91679688 6.74304688 -27.71484375 6.43359375 C-26.48894531 6.12550781 -25.26304687 5.81742187 -24 5.5 C-22.20755859 5.03787109 -22.20755859 5.03787109 -20.37890625 4.56640625 C-13.61978001 2.84145946 -6.85922469 1.27227555 0 0 Z " fill="#B6BEC3" transform="translate(693,92)"/>
<path d="M0 0 C3.94762602 0.52589482 5.98279571 1.469308 8.875 4.1875 C9.55691406 4.81269531 10.23882813 5.43789063 10.94140625 6.08203125 C11.62074219 6.71496094 12.30007813 7.34789062 13 8 C14.26367409 9.13303581 15.53402122 10.25869612 16.8125 11.375 C17.35519531 11.85710937 17.89789062 12.33921875 18.45703125 12.8359375 C20.11513488 14.21555092 20.11513488 14.21555092 23 15 C23 15.66 23 16.32 23 17 C25.31 17 27.62 17 30 17 C30.33 16.34 30.66 15.68 31 15 C30.67 16.65 30.34 18.3 30 20 C18.02751343 18.09960531 11.15545525 11.59761848 3 3 C2.00332776 1.99668328 1.00472805 0.99524949 0 0 Z " fill="#896F40" transform="translate(1482,414)"/>
<path d="M0 0 C0.33 0 0.66 0 1 0 C1.33 11.88 1.66 23.76 2 36 C1.01 36 0.02 36 -1 36 C-2.30618118 25.60886221 -3.33358056 15.48925548 -3 5 C-2.67 5 -2.34 5 -2 5 C-2 8.63 -2 12.26 -2 16 C-1.34 16 -0.68 16 0 16 C0 10.72 0 5.44 0 0 Z " fill="#DB971D" transform="translate(1490,294)"/>
<path d="M0 0 C0.0721875 0.62648438 0.144375 1.25296875 0.21875 1.8984375 C0.79410972 4.19017945 0.79410972 4.19017945 3.03125 4.9765625 C4.25328125 5.29753906 4.25328125 5.29753906 5.5 5.625 C7.96875 6.2890625 7.96875 6.2890625 10 7 C10.33 7.66 10.66 8.32 11 9 C13.95890595 10.56674294 16.98421644 11.9548973 20.01953125 13.3671875 C22.91543104 14.95366995 24.81257579 16.55305088 27 19 C24 19 24 19 22 18 C22 17.34 22 16.68 22 16 C21.39671875 15.89042969 20.7934375 15.78085937 20.171875 15.66796875 C15.61869289 14.76467617 12.64594857 13.94028111 9 11 C6.92536643 10.134886 4.83160031 9.3815912 2.70703125 8.6484375 C1 8 1 8 0 7 C-0.04092937 4.66702567 -0.04241723 2.33294775 0 0 Z " fill="#D99E2B" transform="translate(1463,394)"/>
<path d="M0 0 C4.44430456 1.38493293 6.54325374 3.39252781 9.5 6.9375 C12.43712705 10.44860786 14.97613091 12.81169457 19 15 C19.99 15.66 20.98 16.32 22 17 C23.65549531 17.38499891 25.3222433 17.72793135 27 18 C27 18.33 27 18.66 27 19 C24.69 19 22.38 19 20 19 C20 18.34 20 17.68 20 17 C19.28972656 16.94457031 18.57945313 16.88914062 17.84765625 16.83203125 C14.08088325 15.73145148 12.03886664 13.47648255 9.4375 10.6875 C8.96892578 10.20087891 8.50035156 9.71425781 8.01757812 9.21289062 C6.67204619 7.81466653 5.33582852 6.40749742 4 5 C3.22785156 4.24332031 2.45570312 3.48664063 1.66015625 2.70703125 C0 1 0 1 0 0 Z " fill="#A88138" transform="translate(1485,412)"/>
<path d="M0 0 C6.63530736 0.28849162 11.75501444 2.96075825 17 7 C17.33 7.99 17.66 8.98 18 10 C16.35 9.34 14.7 8.68 13 8 C13 7.34 13 6.68 13 6 C12.39671875 5.90203125 11.7934375 5.8040625 11.171875 5.703125 C6.29421718 4.79053096 3.16176612 4.12404277 0 0 Z " fill="#C49131" transform="translate(1472,404)"/>
<path d="M0 0 C1.66519519 0.34060811 3.33157466 0.67558396 5 1 C5 1.33 5 1.66 5 2 C-0.94 2.33 -6.88 2.66 -13 3 C-9.46945252 -0.53054748 -4.70906218 -1.72665613 0 0 Z " fill="#9BA4AD" transform="translate(667,100)"/>
<path d="M0 0 C-0.33 0.33 -0.66 0.66 -1 1 C2.3 1.33 5.6 1.66 9 2 C9 2.33 9 2.66 9 3 C-0.405 3.495 -0.405 3.495 -10 4 C-4 -2 -4 -2 0 0 Z " fill="#B38934" transform="translate(1053,54)"/>
<path d="M0 0 C4.20521837 0.49048859 5.91034019 1.47633638 8.5625 4.75 C9.15289063 5.46671875 9.74328125 6.1834375 10.3515625 6.921875 C10.89554688 7.60765625 11.43953125 8.2934375 12 9 C12.804375 9.99 13.60875 10.98 14.4375 12 C15.2109375 12.99 15.2109375 12.99 16 14 C12.40155551 12.48357123 10.14286857 10.35026558 7.4375 7.5625 C6.67308594 6.78003906 5.90867187 5.99757813 5.12109375 5.19140625 C4.42113281 4.46824219 3.72117187 3.74507813 3 3 C2.00219538 1.99780943 1.00319998 0.99678975 0 0 Z " fill="#726246" transform="translate(1482,414)"/>
<path d="M0 0 C4.95 0.33 9.9 0.66 15 1 C15 1.66 15 2.32 15 3 C12.87561661 3.08078641 10.7503677 3.13909141 8.625 3.1875 C7.44164062 3.22230469 6.25828125 3.25710937 5.0390625 3.29296875 C3.53472656 3.14794922 3.53472656 3.14794922 2 3 C1.34 2.01 0.68 1.02 0 0 Z " fill="#D69B29" transform="translate(1122,192)"/>
<path d="M0 0 C-1.39750048 3.15835107 -3.05198234 5.32272825 -5.5 7.75 C-6.41265625 8.67039062 -6.41265625 8.67039062 -7.34375 9.609375 C-9 11 -9 11 -11 11 C-9.60249952 7.84164893 -7.94801766 5.67727175 -5.5 3.25 C-4.8915625 2.63640625 -4.283125 2.0228125 -3.65625 1.390625 C-2 0 -2 0 0 0 Z " fill="#C9942E" transform="translate(992,93)"/>
<path d="M0 0 C0.33 0.66 0.66 1.32 1 2 C1.99 2.33 2.98 2.66 4 3 C3.34 6.63 2.68 10.26 2 14 C0 12 0 12 -0.1953125 9.1796875 C-0.17210937 8.08914063 -0.14890625 6.99859375 -0.125 5.875 C-0.10695313 4.77929688 -0.08890625 3.68359375 -0.0703125 2.5546875 C-0.04710937 1.71164062 -0.02390625 0.86859375 0 0 Z " fill="#DA971D" transform="translate(1488,278)"/>
<path d="M0 0 C3 1 3 1 4.1875 2.625 C5.27499354 5.80382728 5.1282071 8.66661533 5 12 C4.01 12.495 4.01 12.495 3 13 C2.87625 11.906875 2.7525 10.81375 2.625 9.6875 C2.24535199 5.92618198 2.24535199 5.92618198 0 3 C0 2.01 0 1.02 0 0 Z " fill="#D1982A" transform="translate(1351,109)"/>
<path d="M0 0 C0.33 0.99 0.66 1.98 1 3 C0.67 3.66 0.34 4.32 0 5 C-1.46015291 4.71758359 -2.91809793 4.42373386 -4.375 4.125 C-5.18710938 3.96257812 -5.99921875 3.80015625 -6.8359375 3.6328125 C-9 3 -9 3 -11 1 C-7.37 1.33 -3.74 1.66 0 2 C0 1.34 0 0.68 0 0 Z " fill="#7B6743" transform="translate(1512,429)"/>
<path d="M0 0 C6.75 2.75 6.75 2.75 9 5 C5.26512223 4.5020163 3.18762365 4.12508244 0 2 C0 1.34 0 0.68 0 0 Z " fill="#C39131" transform="translate(1463,399)"/>
<path d="" fill="#000000" transform="translate(0,0)"/>
<path d="" fill="#000000" transform="translate(0,0)"/>
<path d="" fill="#000000" transform="translate(0,0)"/>
<path d="" fill="#000000" transform="translate(0,0)"/>
<path d="" fill="#005555" transform="translate(0,0)"/>
<path d="" fill="#808080" transform="translate(0,0)"/>
<path d="" fill="#000000" transform="translate(0,0)"/>
<path d="" fill="#008080" transform="translate(0,0)"/>
<path d="" fill="#000000" transform="translate(0,0)"/>
<path d="" fill="#000080" transform="translate(0,0)"/>
<path d="" fill="#000080" transform="translate(0,0)"/>
<path d="" fill="#000000" transform="translate(0,0)"/>
<path d="" fill="#000000" transform="translate(0,0)"/>
<path d="" fill="#00FFFF" transform="translate(0,0)"/>
<path d="" fill="#005555" transform="translate(0,0)"/>
<path d="" fill="#000000" transform="translate(0,0)"/>
<path d="" fill="#008080" transform="translate(0,0)"/>
<path d="" fill="#008080" transform="translate(0,0)"/>
<path d="" fill="#808080" transform="translate(0,0)"/>
<path d="" fill="#000000" transform="translate(0,0)"/>
<path d="" fill="#000000" transform="translate(0,0)"/>
<path d="" fill="#0000FF" transform="translate(0,0)"/>
<path d="" fill="#000000" transform="translate(0,0)"/>
<path d="" fill="#000000" transform="translate(0,0)"/>
<path d="" fill="#000000" transform="translate(0,0)"/>
<path d="" fill="#808080" transform="translate(0,0)"/>
<path d="" fill="#000000" transform="translate(0,0)"/>
<path d="" fill="#000000" transform="translate(0,0)"/>
<path d="" fill="#000000" transform="translate(0,0)"/>
<path d="" fill="#000000" transform="translate(0,0)"/>
<path d="" fill="#000000" transform="translate(0,0)"/>
<path d="" fill="#000000" transform="translate(0,0)"/>
<path d="" fill="#000000" transform="translate(0,0)"/>
<path d="" fill="#000000" transform="translate(0,0)"/>
<path d="" fill="#000000" transform="translate(0,0)"/>
<path d="" fill="#008080" transform="translate(0,0)"/>
<path d="" fill="#808080" transform="translate(0,0)"/>
<path d="" fill="#008080" transform="translate(0,0)"/>
<path d="" fill="#008080" transform="translate(0,0)"/>
<path d="" fill="#000080" transform="translate(0,0)"/>
<path d="" fill="#808080" transform="translate(0,0)"/>
<path d="" fill="#000080" transform="translate(0,0)"/>
<path d="" fill="#008080" transform="translate(0,0)"/>
<path d="" fill="#000000" transform="translate(0,0)"/>
<path d="" fill="#000000" transform="translate(0,0)"/>
<path d="" fill="#000000" transform="translate(0,0)"/>
<path d="" fill="#000000" transform="translate(0,0)"/>
<path d="" fill="#808080" transform="translate(0,0)"/>
<path d="" fill="#000000" transform="translate(0,0)"/>
<path d="" fill="#000000" transform="translate(0,0)"/>
<path d="" fill="#008080" transform="translate(0,0)"/>
<path d="" fill="#000000" transform="translate(0,0)"/>
<path d="" fill="#000000" transform="translate(0,0)"/>
<path d="" fill="#000000" transform="translate(0,0)"/>
<path d="" fill="#000000" transform="translate(0,0)"/>
<path d="" fill="#000000" transform="translate(0,0)"/>
<path d="" fill="#000000" transform="translate(0,0)"/>
<path d="" fill="#808080" transform="translate(0,0)"/>
<path d="" fill="#000000" transform="translate(0,0)"/>
<path d="" fill="#000000" transform="translate(0,0)"/>
<path d="" fill="#008080" transform="translate(0,0)"/>
<path d="" fill="#005555" transform="translate(0,0)"/>
<path d="" fill="#000080" transform="translate(0,0)"/>
<path d="" fill="#000000" transform="translate(0,0)"/>
<path d="" fill="#000000" transform="translate(0,0)"/>
<path d="" fill="#000000" transform="translate(0,0)"/>
<path d="" fill="#000000" transform="translate(0,0)"/>
<path d="" fill="#000000" transform="translate(0,0)"/>
<path d="" fill="#000080" transform="translate(0,0)"/>
<path d="" fill="#000000" transform="translate(0,0)"/>
<path d="" fill="#808080" transform="translate(0,0)"/>
<path d="" fill="#0000FF" transform="translate(0,0)"/>
<path d="" fill="#000000" transform="translate(0,0)"/>
<path d="" fill="#000000" transform="translate(0,0)"/>
<path d="" fill="#000080" transform="translate(0,0)"/>
<path d="" fill="#000000" transform="translate(0,0)"/>
<path d="" fill="#000000" transform="translate(0,0)"/>
<path d="" fill="#000080" transform="translate(0,0)"/>
<path d="" fill="#000000" transform="translate(0,0)"/>
<path d="" fill="#000000" transform="translate(0,0)"/>
<path d="" fill="#000000" transform="translate(0,0)"/>
<path d="" fill="#000000" transform="translate(0,0)"/>
<path d="" fill="#008080" transform="translate(0,0)"/>
<path d="" fill="#000000" transform="translate(0,0)"/>
<path d="" fill="#000000" transform="translate(0,0)"/>
<path d="" fill="#000000" transform="translate(0,0)"/>
<path d="" fill="#008080" transform="translate(0,0)"/>
<path d="" fill="#000080" transform="translate(0,0)"/>
<path d="" fill="#000000" transform="translate(0,0)"/>
<path d="" fill="#000000" transform="translate(0,0)"/>
<path d="" fill="#000000" transform="translate(0,0)"/>
<path d="" fill="#000080" transform="translate(0,0)"/>
<path d="" fill="#000080" transform="translate(0,0)"/>
<path d="" fill="#000000" transform="translate(0,0)"/>
<path d="" fill="#000080" transform="translate(0,0)"/>
<path d="" fill="#000000" transform="translate(0,0)"/>
<path d="" fill="#008080" transform="translate(0,0)"/>
<path d="" fill="#000000" transform="translate(0,0)"/>
<path d="" fill="#008080" transform="translate(0,0)"/>
<path d="" fill="#000000" transform="translate(0,0)"/>
<path d="" fill="#000000" transform="translate(0,0)"/>
<path d="" fill="#808080" transform="translate(0,0)"/>
<path d="" fill="#000000" transform="translate(0,0)"/>
<path d="" fill="#005555" transform="translate(0,0)"/>
<path d="" fill="#808080" transform="translate(0,0)"/>
<path d="" fill="#000000" transform="translate(0,0)"/>
<path d="" fill="#000000" transform="translate(0,0)"/>
<path d="" fill="#000000" transform="translate(0,0)"/>
<path d="" fill="#000080" transform="translate(0,0)"/>
<path d="" fill="#000000" transform="translate(0,0)"/>
<path d="" fill="#000000" transform="translate(0,0)"/>
<path d="" fill="#008080" transform="translate(0,0)"/>
<path d="" fill="#008080" transform="translate(0,0)"/>
<path d="" fill="#000000" transform="translate(0,0)"/>
<path d="" fill="#008080" transform="translate(0,0)"/>
<path d="" fill="#008080" transform="translate(0,0)"/>
<path d="" fill="#808080" transform="translate(0,0)"/>
<path d="" fill="#000000" transform="translate(0,0)"/>
<path d="" fill="#008080" transform="translate(0,0)"/>
<path d="" fill="#000080" transform="translate(0,0)"/>
<path d="" fill="#000000" transform="translate(0,0)"/>
<path d="" fill="#000000" transform="translate(0,0)"/>
<path d="" fill="#000000" transform="translate(0,0)"/>
<path d="" fill="#00FFFF" transform="translate(0,0)"/>
<path d="" fill="#808080" transform="translate(0,0)"/>
<path d="" fill="#000000" transform="translate(0,0)"/>
<path d="" fill="#000000" transform="translate(0,0)"/>
<path d="" fill="#008080" transform="translate(0,0)"/>
<path d="" fill="#0000FF" transform="translate(0,0)"/>
<path d="" fill="#008080" transform="translate(0,0)"/>
<path d="" fill="#562B23" transform="translate(0,0)"/>
<path d="" fill="#562B22" transform="translate(0,0)"/>
<path d="" fill="#000080" transform="translate(0,0)"/>
<path d="" fill="#000080" transform="translate(0,0)"/>
<path d="" fill="#000000" transform="translate(0,0)"/>
<path d="" fill="#000000" transform="translate(0,0)"/>
<path d="" fill="#000000" transform="translate(0,0)"/>
<path d="" fill="#000080" transform="translate(0,0)"/>
<path d="" fill="#000080" transform="translate(0,0)"/>
<path d="" fill="#808080" transform="translate(0,0)"/>
<path d="" fill="#000000" transform="translate(0,0)"/>
<path d="" fill="#808080" transform="translate(0,0)"/>
<path d="" fill="#000080" transform="translate(0,0)"/>
<path d="" fill="#808080" transform="translate(0,0)"/>
<path d="" fill="#000000" transform="translate(0,0)"/>
<path d="" fill="#808080" transform="translate(0,0)"/>
<path d="" fill="#005555" transform="translate(0,0)"/>
<path d="" fill="#000000" transform="translate(0,0)"/>
<path d="" fill="#808080" transform="translate(0,0)"/>
<path d="" fill="#000000" transform="translate(0,0)"/>
<path d="" fill="#008080" transform="translate(0,0)"/>
<path d="" fill="#00FFFF" transform="translate(0,0)"/>
<path d="" fill="#000000" transform="translate(0,0)"/>
<path d="" fill="#808080" transform="translate(0,0)"/>
<path d="" fill="#000000" transform="translate(0,0)"/>
<path d="" fill="#000000" transform="translate(0,0)"/>
<path d="" fill="#000000" transform="translate(0,0)"/>
<path d="" fill="#000000" transform="translate(0,0)"/>
</svg>
